<svg version="1" xmlns="http://www.w3.org/2000/svg" width="346.667" height="346.667" viewBox="0 0 260.000000 260.000000"><path d="M117 .6C71.7 6.2 34 32.3 14 72 4.6 90.8.6 107.8.6 129.5.5 146.2 1.8 155 6.2 169c6.4 20.1 16.9 37.2 32.2 52.6 19.1 19.2 43.2 31.8 69.6 36.5 9.7 1.7 34.3 1.7 44 0 26.4-4.7 50.4-17.3 69.6-36.5 19.2-19.2 31.8-43.2 36.5-69.6 1.7-9.7 1.7-34.3 0-44-9.4-53.1-49.9-94.3-103.6-105.5C146.7.9 124-.3 117 .6zm-1 59.5c.9 1.5.9 2.8 0 5-1.4 3.3-8.4 10-12.8 12.3-6.9 3.6-8.9 24.6-5.6 59.8 1.9 20.3 1.3 30.1-2.2 40.6-5.3 15.9-14.1 23.2-28 23.2-7.9 0-13.8-2.5-18.7-8-4.2-4.7-7.6-12.7-6.3-14.8.3-.5 1.7-1.2 3-1.4 2.1-.4 2.6 0 3.2 2.6 2.3 10.8 9.4 16.9 19.5 16.8 9.9 0 16.9-5.3 20.5-15.3 2.1-6 1.9-19.6-.6-38.9-3.3-25.8-2.4-44.6 2.9-56.5C92 83 92.7 81 92.5 81c-1.1 0-15.5 5.5-18.7 7.1-5.8 3-11 8-13.1 12.9-2.3 5.1-2.7 15.6-.7 20.5 2.2 5.7 9 11.1 16.2 12.9 2 .4 2.5 1.1 2.1 2.5-.4 1.6-1.1 1.9-3.7 1.5-10.6-1.9-16.6-5.5-22-13.2-2.5-3.5-3.1-5.5-3.4-11.3-.6-9.5 1.1-14.9 6.5-21 5.5-6 14.5-10.5 29.1-14.5 10.1-2.8 10.3-2.9 12.9-7.3 4.1-7 10.7-13.1 14.2-13.1 2 0 3.4.7 4.1 2.1zm89.6 3.3c.1 0-.5 7.5-1.2 16.6-2.1 24.7-2.1 53.9-.1 62.3 2.9 11.6 8.5 20.2 14.6 22.2 3.1 1 1.5 4.5-2.1 4.5-6.6 0-15.6-7.2-19.4-15.5-4.5-9.8-5-17.8-2.8-40.5.5-5.3.4-5-3.1 5-4.3 12.4-7.1 17.6-12.1 21.9-3.1 2.8-4.2 3.2-8.2 2.9-4-.3-5-.8-7-3.8-2.4-3.4-2.4-3.9-1.9-18.5l.6-15-3.8 15c-5.4 20.9-10.2 32.9-17.3 43.2-3.1 4.6-3.5 4.8-5.7 3.4-1.2-.8-.4-3.2 4.6-13.8 7.9-16.4 13-32.1 20.1-61 5.3-21.8 5.8-23.3 8-23.3h2.2v29.2c0 29.2.7 36.1 3.5 37.2 1.9.7 6.1-4.5 9.2-11.3 2.8-6.3 11.9-37.6 15.3-52.4 2-9.1 2.3-9.7 4.3-9.1 1.2.4 2.3.7 2.3.8z"/><path d="M108.2 64.7c-1.1 1-2.8 3.1-3.8 4.7l-1.9 2.9 2.8-1.8c3.1-2 7.4-7.5 5.9-7.5-.5 0-1.9.8-3 1.7zM195.2 105c0 1.4.2 1.9.5 1.2.2-.6.2-1.8 0-2.5-.3-.6-.5-.1-.5 1.3z"/></svg>