<?xml version="1.0" encoding="UTF-8" standalone="no"?>
<!-- Generator: Adobe Illustrator 15.1.0, SVG Export Plug-In . SVG Version: 6.00 Build 0)  -->

<svg
   xmlns:dc="http://purl.org/dc/elements/1.1/"
   xmlns:cc="http://creativecommons.org/ns#"
   xmlns:rdf="http://www.w3.org/1999/02/22-rdf-syntax-ns#"
   xmlns:svg="http://www.w3.org/2000/svg"
   xmlns="http://www.w3.org/2000/svg"
   xmlns:sodipodi="http://sodipodi.sourceforge.net/DTD/sodipodi-0.dtd"
   xmlns:inkscape="http://www.inkscape.org/namespaces/inkscape"
   version="1.1"
   id="Layer_1"
   x="0px"
   y="0px"
   width="432px"
   height="432px"
   viewBox="0 0 432 432"
   enable-background="new 0 0 432 432"
   xml:space="preserve"
   inkscape:version="0.91 r13725"
   sodipodi:docname="20110804001_svg-leaves.svg"><metadata
     id="metadata57"><rdf:RDF><cc:Work
         rdf:about=""><dc:format>image/svg+xml</dc:format><dc:type
           rdf:resource="http://purl.org/dc/dcmitype/StillImage" /><dc:title></dc:title></cc:Work></rdf:RDF></metadata><defs
     id="defs55" /><sodipodi:namedview
     pagecolor="#ffffff"
     bordercolor="#666666"
     borderopacity="1"
     objecttolerance="10"
     gridtolerance="10"
     guidetolerance="10"
     inkscape:pageopacity="0"
     inkscape:pageshadow="2"
     inkscape:window-width="2560"
     inkscape:window-height="1377"
     id="namedview53"
     showgrid="false"
     inkscape:zoom="3.0903185"
     inkscape:cx="116.59476"
     inkscape:cy="320.93893"
     inkscape:window-x="-8"
     inkscape:window-y="-8"
     inkscape:window-maximized="1"
     inkscape:current-layer="Layer_1" /><path
     d="M227.27,165.34l-0.434-0.239l2.441-3.599l-2.475,0.014l-0.505-0.831l-1.058-0.495l-2.302-0.457l2.529-2.191l-0.521-0.312  l1.72-1.914l-1.377-0.885l1.959-2.021l-1.27-0.322l0.462-1.061l-0.543-0.119l-0.096-1.67l-3.813-0.281l0.105-2.725l-0.992,0.162  l0.114-2.789l-1.403,0.024l-1.556-1.718l0.323-1.955l-1.418-0.465l-0.151-1.773l-0.272-1.525l-5.377,3.016l-0.693-0.915  l-1.819,1.284l-0.601-0.513l-1.351,1.819l-3.003-1.926l-0.7,1.169l-0.697-2.838l-2.463,0.213l0.168-2.036l-0.422-0.009l-0.154-2.392  l-1.522,0.239l-0.34-1.986l-1.5-0.149l-1.211-2.074l-0.736,0.513l-1.884,0.791l-3.642,0.762l-1.429-1.361l0.09-1.408l-1.406,0.398  l-0.509-1.761l-0.669,0.325l-1.681-2.268l-2.456,1.125l-1.587-2.211l-1.034,0.095l-1.019-2.055L176,122.227l-1.714-1.928  c-4.841-9.32-6.697-7.354-6.697-7.354c0.103,0.937-0.241,9.353-0.434,9.823c-0.194,0.47-0.459,0.198-1.137,0.13  c-0.677-0.067-0.344,0.505,0.307,0.861c0.647,0.358,0.398,1.896,0.398,1.896l-1.17-0.019l0.964,2.098l-3.366-0.204l0.182,2.103  l-0.779-0.013l1.168,2.004l-1.69-0.038l0.136,0.601l0.389,1.341l0.059,2.024l-1.714-0.429l-0.569,0.464l-2.515-0.25l0.174,0.864  l-4.384-0.434l1.614,2.114c-1.747,1.195,0.113,0.859,0.113,0.859c1.696,1.926,1.096,2.062,1.096,2.062l-1.56-0.024l1.444,1.185  l0.511,0.767l2.027,1.893l-2.315,0.358l1.208,1.292l-0.11,1.097l2.041,1.438l-0.891,0.433l1.117,1.219l-1.291-0.128l0.014,1.173  l-2.774-0.925l-0.269,0.755l-2.716-0.205l-0.474,3.47l-1.987-0.326l-0.219,0.238l-1.953,0.001c0,0,0.013,0.524-0.768,0.512  c-0.78-0.013-3.038-0.236-3.038-0.236l-0.115,1.161c0,0-1.38,0.124-2.909,0.428c-1.528,0.304-9.717-1.158-7.456,0.304  c2.268,1.46,4.527,4.291,4.527,4.291l-0.426,0.999l1.168,0.052l1.627,1.983l0.606-0.85l1.394,1.7l-1.451,0.833l4.35,2.125  l-1.541,1.085l5.424,1.123l-2.688,2.144l2.633,1.042l-0.283,0.884l2.696,0.397l-0.678,0.91l5.362,0.466l-0.811,1.612l8.931-0.092  l-3.376,3.182l0.38,0.754c0,0-3.054,2.563-3.39,2.66c-0.336,0.098,7.714,1.025,7.714,1.025l0.084,1.116l6.256-0.032l0.019,1.761  l4.701-2.075l0.338,1.205l4.317-2.176c0.002,1.953,0.505,2.131,1.389,1.765c0.693-1.754,2.301-0.879,3.293-1.042  c0.994-0.162,2.668-3.904,2.649-2.408c-0.019,1.498,1.394,0.399,1.394,0.399c1.702-5.368,6.239-9.086,6.239-9.086  c0.116-0.622,0.277-1.109,0.468-1.492c0.93,1.242,9.413,12.166,24.125,17.876l3.002,1.898l1.037-3.384c0,0-1.427-0.884-3.693-1.451  c0,0-7.79-1.572-16.628-9.475c0,0-3.819-3.805-6.157-6.656c1.356,0.003,2.792,1.413,2.792,1.413s0,0,1.012,0.297  c1.012,0.296,3.98,0.589,4.721,0.989c0.744,0.399,3.659,1.208,3.659,1.208s0,0,0.266-0.038c0.262-0.039-0.396-1.277-0.022-1.11  c0.375,0.168,3.213,1.427,3.615,1.661c0.4,0.235,0.54-0.858,0.54-0.858c1.817-1.252,3.139-1.448,3.234-2.415  c0.097-0.967-1.999-0.849-2.006-1.436c-0.007-0.587,5.404,0.014,5.404,0.014l-0.251-0.74l3.333-1.429c0,0,0,0-0.885-0.935  C223.478,167.439,227.27,165.34,227.27,165.34z"
     id="path3" /><path
     d="M67.677,287.877c0,0-4.209,1.403-1.276,16.713c0,0-0.81,2.808-2.425,0.682c0,0,0,4.508-0.849,5.443  c-0.853,0.937-0.766,0.767-1.362,0.085c-0.593-0.681-0.17,1.276-3.148,2.297c-2.977,1.021-4.166,1.785-4.593,0.255  c-0.426-1.53-0.509-3.657-0.762-4.509c-0.257-0.849-1.706,0.852-2.469,1.191c-0.766,0.34-0.509,0.596-1.954,1.275  c-1.45,0.682-2.469,2.296-3.575,1.106c-1.105-1.191-0.683-1.616-1.019-2.637c-0.344-1.021-0.597-0.767-2.385-0.937  c-1.786-0.169-3.401-2.296-3.231-2.976c0.17-0.681,0-0.342,0-0.342s-3.317-0.254-3.4-1.954c-0.087-1.702-3.404-0.088-2.895-2.979  c0.509-2.893,4.51-6.465,6.295-7.06c1.785-0.596-0.34-0.171,0.766-1.105c1.106-0.937,5.782-1.275,5.782-2.808  c0-1.53,0.17-1.615-3.487-1.7s-4.337,0.51-6.805-1.446c-2.465-1.956-4.593-2.298-5.016-3.488c-0.427-1.191,3.317-4.167,4.336-4.423  c1.023-0.256-6.295-3.656-5.442-5.869c1.445-1.53,1.528-1.104,2.038-1.104c0,0-4.676-3.231-4.846-5.273c0,0-0.853-1.617,1.785-1.957  c0,0-3.827-3.232-2.464-5.529c0,0,0.723-0.592,1.532-0.735c0.112-0.018,0.224-0.031,0.336-0.031  c2.638,0.087-1.103-2.039-0.592-2.209c0.509-0.17,1.105-0.257,1.105-0.257s-2.638-4.763-1.022-8.335c0,0,4.083-0.681,7.658,4.593  c0,0,0.252-0.51,1.188-0.51c0.937,0,2.638,2.979,2.895,4.422c0.253,1.447,2.125,1.787,2.125,1.107c0-0.681,1.275,0.595,1.446,2.297  c0,0,5.615,6.208,7.57,8.675c0,0,3.231,0.255-3.487-6.89c0,0-2.211,0.257-5.529-5.444c0,0-5.02-4.593-3.487-5.188l0.85-0.511  c0,0-3.148-7.994-2.634-8.59c0.509-0.597,3.657-1.191,12.673,3.487c0,0,0.253-0.682,0.592-2.467  c0.344-1.787-1.105-3.913-0.422-5.018c0.68-1.108,2.381,0,3.827,0.338c1.446,0.342,0.936-1.188,1.533-2.892  c0.592-1.701,2.125-0.425,2.717-0.255c0,0-0.083-2.808,0.939-3.401c1.02-0.597,1.785,2.126,2.042,0.509  c0.253-1.615-0.173-3.315,1.359-2.721c1.532,0.596,1.362,2.467,3.4-0.682l1.875-3.147l4.419,4.85l2.298,0.17l0.084,4.423  c0,0,1.449,1.7,3.913,0.51c2.465-1.19,1.702,2.127,1.615,2.894c-0.083,0.764,0.087,0.426,0.087,0.426s2.891-3.574,6.465-1.447  c0,0-0.086,5.274-0.086,6.378c0,1.106,2.978-3.23,5.868-3.4c0,0,3.658-1.362,5.02,0.51c0,0-1.275,4.763-1.275,5.953  c0,1.191,0.596,1.448,0.935,1.448c0.34,0-1.958,1.358-2.127,1.955c-0.17,0.597-0.597,0.597,0,1.275  c0.596,0.681,1.445,0.426-2.722,3.914c0,0,0.34,0.339-0.426,1.021c-0.763,0.68-3.827,3.485-4.506,4.678  c-0.68,1.19-1.533,3.657-1.019,4.508c0.509,0.85,4.08-1.956,5.016-5.273c0,0,3.061-4.424,3.997-4.594  c0.939-0.169,0.939,0.682,2.894-1.021c1.955-1.7,2.212-3.402,2.805-2.807c0.596,0.596,1.023,0.765,1.789,0.596  c0.762-0.171,8.42-2.042,9.525-1.531c1.106,0.51,0.17,6.378,0.767,7.316c0.596,0.934,2.974,0.424,2.551,1.954  c-0.427,1.531-1.362,2.722-1.955,3.231c-0.596,0.511,1.102,0.427,1.699,1.704c0.596,1.273-0.766,2.635-1.872,3.23  c-1.102,0.597-0.766,0.17-0.766,0.17s2.128,0.851,2.128,3.147c0,0-5.529,1.701-4.763,2.806c0.766,1.106,6.465,1.617,5.019,3.402  c-1.445,1.787-8.08,3.404-8.423,4.169c-0.339,0.766,6.125,2.382,8.254,5.699c2.125,3.317-9.103,4.593-9.103,4.593  s1.275,0,0.427,0.596c-0.85,0.595-6.382-1.532-7.484-1.701c-1.106-0.17-3.491,0.426-2.725,1.105  c0.766,0.681,7.144,2.212,9.359,3.063c2.208,0.851,5.356,1.445,5.356,2.636s-2.975,4.508-3.658,4.678  c-0.679,0.171-1.275,0.682-0.596,1.533c0.683,0.849,0.766,1.021-1.02,0.849c-1.785-0.17-1.019,0.766-0.766,1.19  c0.256,0.427-3.574-0.255-4.423,0.342c-0.849,0.595,0.85,2.976,0.257,3.232c-0.597,0.255-5.02-1.702-5.956-1.957  s-4.676-3.063-5.699-3.063c-1.019,0-1.532-0.425-1.955,0.512c-0.427,0.934,0.17,3.23-0.68,3.827c-0.853,0.596-3.657-0.17-4.85-0.852  c-1.192-0.68-2.552-1.105-2.891-1.53c-0.343-0.425-2.725-1.787-2.725-1.787s-1.019,2.212-1.616-0.764  C71.631,300.763,71.038,287.665,67.677,287.877z"
     id="path5" /><path
     d="M100.711,84.485c-8.314-7.927-17.146-15.38-25.758-22.978c4.954,0.591,10.386-0.296,14.242-3.669  c0.781,0.067,4.053-4.033,4.021-4.396c-0.26-0.086,2.462-5.521,2.431-6.117c0.274,0.123,0.559,0.142,0.856,0.056  c-0.05-0.62-0.156-1.229-0.319-1.827c0.101-0.146,0.909,0.6,0.854,0.162c-0.333-2.67,0.413-5.367-0.459-8.229  c-0.423-1.387-1.627-5.63-1.469-7.31c0.154-1.631-1.046-5.168-1.662-6.708c-0.07-0.188-1.818-5.853-2.141-5.425  c0.209,1.156-0.192,1.551-1.203,1.188c-0.004,0.212,0.408,2.109-0.193,2.072c-1.038-0.063-8.313-1.34-8.69,0.166  c-1.07,0.062-0.085,1.54-1.731,0.337c-1.61-1.274-0.865,0.822-1.9,1.082c0.575,1.802-1.745,1.579-2.938,2.029  c-9.505,3.585-14.678,16.938-11.33,26.431c-1.626-1.581-3.486-2.997-5.278-4.4c1.496-2.106,3.998-6.498,3.78-9.268  c-0.459-2.794,0.683-4.919-0.408-7.49c-1.536-3.62-3.316-7.847-6.284-10.568c0.587,0.538-3.272-2.028-3.167-3.014  c-0.062,0.58-0.04,0.46-0.719-0.455C52.203,18.144,49.5,14.8,49.689,15c0.005,0.185,0.179,1.12-0.203,1.17  c-0.753,0.099-8.111-8.313-6.009-4.16c-1.39,0.188-3.89-0.686-5.006-0.749c-1.318-0.074-5.283-2.754-5.891-2.585  c-1.046,0.29-0.14,1.979-2.571,1.554c-1.776,0.01-1.66,1.127-3.418,0.601c-1.549-0.464-3.452,1.741-4.383,2.45  c-2.327,1.774-2.994-2.161-4.049-0.476c-0.832-0.319-1.532-0.844-2.099-1.574c-0.361,0.192-0.833,4.456-0.456,3.503  c-0.167,0.42,2.398,6.349,1.069,4.845c0.481,0.698,0.814,1.453,0.997,2.266c-0.051,0.162-0.726-0.395-0.731-0.175  c0.201,0.587,1.929,9,2.384,8.601c-0.069,0.061-0.87-0.642-0.849-0.477c-0.429-0.045,2.996,6.754,1.257,4.324  c0.397,0.534,0.675,1.117,0.833,1.748c0.029-0.036-0.266,0.118-0.251,0.135c-0.218-0.292-0.454-0.569-0.707-0.832  c-1.229,2.31,6.515,7.86,6.265,9.798c-1.622-3.074,3.113,3.223,3.56,3.572c0.183,0.143-1.062-2.011-0.837-1.656  c-0.239,0.225,5.801,4.233,5.395,4.269c0.058-0.219,0.063-0.44,0.017-0.664c0.582,0.08,0.977,0.464,1.184,1.154  c-1.193-2.571,1.843,1.439,2.232,0.933c0.15-0.196,4.528,0.91,5.665,1.056c4.111,0.532,10.193-2.613,13.377-4.876  c1.027-0.745,11.708,9.996,12.978,11.146c-0.252,0.278-1.806,1.505-1.714,1.457c-0.647-0.911-6.4-6.959-6.796-6.104  c-2.095-2.188-5.891-0.78-9.044-1.714c-2.545-0.282-8.702,1.807-10.19,2.742c-0.645,0.405-7.057,6.574-5.775,6.798  c-2.235-0.391-6.681,8.843-5.633,11.564c-0.88-0.877-1.198,3.64-0.855,4.831c0.963,3.346-2.053,2.498-2.665,4.077  c-0.435,1.122,1.223,1.613,1.729,1.892c-0.109-0.507,7.167,1.124,7.63,1.631c-0.535-1.166,1.174,0.51,1.342,0.559  c-0.473-0.137,1.055-0.754,0.306-0.845c0.496,0.061,1.355,0.94,1.766,1.189c0.014-0.388-0.021-0.773-0.106-1.154  c0.23,0.003,1.8,0.798,2.079,0.796c0.439,0.388,0.879,0.773,1.322,1.157c0.166-0.095,4.27,0.612,4.183,0.682  c-0.298,0.24,0.551-1.486,0.712-1.423c1.359,0.529,1.711,0.417,3.05,0.783c0.328-0.448,0.239-0.903-0.268-1.367  c-0.018-0.147,1.886,1.769,1.813,1.708c0.101,0.084-0.246-1.004-0.236-1.083c0.057-0.457,7.767-0.409,6.853-3.225  c0.252,0.287,3.387,0.068,3.421,0.041c0.42-0.328,0.557-1.121,1.483-1.768c0.815-0.578,1.118-2.6,1.674-2.136  c-0.595-1.249,3.09-3.075,3.275-3.425c0.295-0.556-0.664-2.076-0.317-2.649c0.836-1.382,1.112-4.677,1.479-5.953  c-0.157-0.604-0.399-4.007-0.847-4.379c-0.156-2.135,2.387-1.965,1.302-3.798c6.604,6.03,13.256,12.009,19.887,18.011  c2.364,2.14,4.728,4.282,7.096,6.418C98.471,86.18,101.661,85.393,100.711,84.485C100.2,83.998,101.609,85.343,100.711,84.485z"
     id="path7" /><path
     d="M426.026,49.238l-0.596-0.143l0.036-0.191l2.048-6.026l-1.117-0.43l0.632-5.834l-1.153-0.144l-0.073-3.107l-0.894,0.19  l0.224-3.3l-0.931,0.191l-0.374-3.49l-1.189,0.333c0,0-0.931-3.442-1.116-3.777c-0.186-0.334-1.34,0.623-1.34,0.623  c0-1.674-0.968-4.4-0.968-4.4s-1.86,0.766-1.86,0.478s-1.823-3.299-1.823-3.299s-1.488,1.386-1.749,0.669  c-0.261-0.718-0.67-1.961-0.67-1.961s-0.856,0.43-0.782,0.191c0.074-0.239-0.969-1.578-0.969-1.578s-0.894,1.53-0.929,1.004  c-0.038-0.526-1.676-2.917-1.714-3.061c-0.037-0.142-1.227,1.34-1.227,1.34c0-0.431-1.229-2.2-1.267-2.344  c-0.036-0.144-0.558,0.862-0.819,0.622c-0.26-0.24-0.968-1.196-1.19-1.101c-0.224,0.096-1.117,1.388-1.117,1.388  c-0.632-0.958-3.113-2.471-3.113-2.471s-0.198,1.02-1.291,0.573c-1.636-1.02-3.226-3.507-3.374-3.762  c-0.147-0.255-1.092-0.702-1.092-0.702c1.24,5.484,0,7.334-0.148,7.523c-0.147,0.192-1.34-0.636-1.34-0.636  s-0.693,1.658-0.842,1.977c-0.15,0.319-0.25,1.274-0.498,1.211c-0.247-0.063-1.24-0.063-1.24-0.063  c-0.595,0.956-1.34,2.933-1.34,2.933l-1.391-0.574c-0.99,1.339-0.842,3.954-0.842,3.954l-1.738-0.446l-0.347,3.507  c-0.695-0.575-1.539,0.254-1.539,0.254l-0.445,2.933l-1.339,0.287l-0.969,2.871l-1.043,0.669c-0.148,0.766-0.073,3.539-0.073,3.539  l-0.893-0.479c-0.598,1.914-0.076,4.782-0.076,4.782l-0.817-0.191l0.371,4.304l-0.818,0.287l1.413,4.209l-0.67,0.382l1.563,4.208  l-0.52,0.288l2.381,4.877l-0.371,0.286c-0.151,0.958,2.976,4.783,2.976,4.783l-0.52,1.147c0.52,0.097,4.092,3.539,4.092,3.539  l-0.072,0.575l1.289,0.892c1.49,1.913,10.323,7.014,10.323,7.014l6.352,7.141l1.687,11.987c0,0,0.496-0.892,1.092-1.275  c0.456-0.293,1.588-0.128,1.588-0.128c-1.153-0.765-1.34-2.727-1.34-2.727c-0.56-1.338-1.006-7.077-1.006-7.938  s2.085-3.873,3.314-5.786c1.227-1.914,3.162-5.691,5.954-7.46c2.792-1.77,5.769-9.325,5.806-9.468  c0.037-0.145-0.075-1.1-0.075-1.244c0-0.144,0.261,0.047,0.261,0.047l2.384-4.974l-0.635-0.143  C426.36,51.725,426.026,49.238,426.026,49.238z"
     id="path9" /><path
     d="M90.89,199.619c0,0-2.476-0.823-2.947-1.179c-0.471-0.354-3.417-3.065-4.833-4.244c-1.414-1.178-4.243-1.885-7.072-5.775  c-2.83-3.89-6.484-9.077-8.605-10.138c-2.121-1.061-6.367-0.354-7.191,0.707c-0.825,1.06-5.068,5.069-5.54,5.423  c-0.472,0.353-7.9-0.708-7.9-1.18c0-0.471-5.067,1.415-5.067,1.415s-4.126-0.119-4.362-1.415c-0.236-1.296-2.71,0.354-5.54,0.708  c-2.829,0.354-14.972,0.59-14.264,0.118c0.708-0.472,6.72-5.894,9.313-7.309s7.897-4.126,9.666-5.187c0,0,2.711-2.123,2.946-2.592  c0.237-0.473-3.654-1.18-5.304-0.708c-1.65,0.47-2.829-0.119-4.126-0.119s-10.256-0.354-10.256-0.354l-2.357-4.243l-5.422-1.534  l-9.313-9.194c0,0,5.54,0.119,7.544-0.354c2.005-0.472,0.353-3.536,3.301-3.3c2.946,0.234,4.832,0.353,5.54,0.353  c0.707,0-6.72-3.065-8.134-5.422c-1.416-2.358-2.24-3.536-2.004-4.362c0.236-0.825,3.654-2.357,4.833-2.24  c1.179,0.119,3.183-0.118,1.298-2.357c-1.886-2.241-5.07-5.069-4.126-5.659c0.942-0.589,2.711,0.354,3.065,0  c0.354-0.354-0.119-1.414-0.119-4.951c0-3.538,0.354-7.19-0.944-9.548c-1.295-2.359-1.768-6.365,1.063-4.244  c2.828,2.122,3.89,3.772,8.487,4.244c4.598,0.471,4.715-0.59,6.602,0.943s2.24-0.943,2.475-2.004  c0.236-1.062,4.479,2.829,5.423,6.248c0.943,3.417,3.655,1.179,3.066-2.477c-0.592-3.654-1.653-8.25-0.12-6.6  c1.533,1.65,6.72,6.838,7.192,9.43c0.471,2.593,4.007,5.893,3.89,6.602c-0.119,0.707,1.886-2.123,2.946-4.125  c1.061-2.006,1.18-5.541,2.477-5.541c1.296,0,4.833-1.179,6.717,5.305c1.888,6.482,4.834,8.958,4.362,14.617  c-0.47,5.658-1.06,7.308-2.237,11.905c-1.18,4.598-4.834,6.602-1.769,6.366c3.065-0.235,4.479-6.248,5.894-7.781  c1.414-1.531,7.662-10.49,8.134-7.426c0.47,3.065,0,5.069,0.235,9.786c0.235,4.714,2.004,5.539-0.235,7.78  c-2.241,2.239-6.838,11.552-7.309,13.32c-0.471,1.767-1.532,2.24-0.59,4.715c0.943,2.475-2.239,0.826,1.532,3.538  c3.773,2.71,18.507,14.146,19.451,15.677C91.597,196.79,90.89,199.619,90.89,199.619z"
     id="path11" /><g
     id="g13"><path
       d="M169.261,311.788c0,0,7.552,3.167,6.068-10.244c0,0,2.575-6.559,2.273-1.178c-0.302,5.378-0.985,11.666-4.502,12.855   C169.583,314.409,171.083,313.796,169.261,311.788z"
       id="path15" /><path
       d="M177.603,300.366l12.738,0.543l-0.186-1.675l8.325-2.905l-0.236-2.407l5.226-3.139c0,0-10.257-1.812-8.541-2.513   c1.715-0.702,11.696-11.794,11.696-11.794l-3.06-0.75c0,0,8.524-3.679,11.401-5.245c0.55-0.3,0.223-0.511-3.361-0.797   c-5.451-0.435-11.471,1.939-11.404-0.343c0.069-2.28,6.805-10.29,8.119-12.581c1.317-2.291-0.136-0.945-0.866-0.896   c-0.733,0.048,3.799-9.064,3.868-11.345c0.066-2.28-12.581,8.399-13.919,8.196c0,0-4.256-0.011,1.414-11.843   c0,0,1.852-5.263-3.958,0.118c-2.064-5.662-1.585-5.107-1.585-5.107s0.65-10.028-3.053-10.516c0,0-1.062,7.193-2.037,9.093   c-0.972,1.902-4.101-2.075-4.101-2.075s1.374,5.194,1.082,6.313c-0.292,1.122,0.341,5.117-0.292,6.63   c-0.634,1.51-6.122,4.005-7.651,0.876c-1.53-3.128-5.438-7.785-5.438-7.785s-0.312,9.639,0.342,10.62   c0.65,0.985-0.372,2.155-0.372,2.155s0.458,3.567,1.463,5.409c1.002,1.843,3.597,8.79,1.403,8.937   c-2.193,0.147-16.158-8.907-16.158-8.907s5.641,6.451,2.25,7.34c-3.391,0.886-4.433-0.438-4.433-0.438s10.641,18.672,13.146,19.899   c2.505,1.229-1.696,3.197-4.638,0.897c-2.943-2.299-4.854-4.522-3.929-1.647c0.925,2.875,2.146,4.631,1.287,4.98   c-0.856,0.353,5.604,12.476,14.261,13.439"
       id="path17" /></g><g
     id="g19"><path
       d="M304.179,241.497c0.088-0.114,0.03-0.24-0.105-0.085C304.096,241.518,304.129,241.561,304.179,241.497z"
       id="path21" /><path
       d="M324.898,283.756c-0.077,0.006-0.152,0.023-0.229,0.044C325.081,283.799,325.249,283.73,324.898,283.756z"
       id="path23" /><path
       d="M322.817,283.353c-1.303-0.712-0.131-1.009-1.909-1.289c-1.779-0.28-2.422-0.339-3.292-0.574   c-0.874-0.234-0.612-0.904-1.532-0.887c-0.919,0.018-2.183-0.556-4.446-0.014c-2.269,0.543-3.838,1.545-3.931,0.677   c-0.091-0.869-0.013-2.293,1.335-2.817c1.345-0.524,3.222-0.749,3.875-1.08c0.654-0.331,0.893-0.219,1.256-0.738   c0.362-0.518,0.412-0.771,1.432-0.965c1.021-0.193,0.768-0.243,1.545-0.879c0.779-0.634,0.705-0.255,1.32-0.725   c0.616-0.47-0.193-0.691,0.892-0.546c1.084,0.145,1.483-0.563,1.581-1.067c0.1-0.505,0.1-0.505,0.1-0.505s1.56-0.613,2.061-1.17   c0.5-0.558-0.133-1.008-0.163-2.192c-0.031-1.185,0.571-1.265,0.807-2.462c0.231-1.198,0.622-1.517,0.231-1.198   c-0.388,0.317,0.541-0.42,0.698-1.566c0.158-1.148,0.236-0.544,0.158-1.148c-0.079-0.604,1.623-2.629,1.148-4.228   s0.008-1.047-0.556-0.174c-0.563,0.872-2.044,1.763-2.698,1.766c-0.657,0.003-1.203-0.889-1.846-0.62   c-0.641,0.269-1.48,1.218-1.837,0.363c-0.359-0.855,0.023-2.482-0.477-1.926c-0.502,0.558-1.935,1.194-2.11,1.423   c-0.175,0.229,0.059-0.971-0.921-0.31c-0.979,0.66-1.521,0.752-2.111,1.096c-0.591,0.343-1.412-0.145-1.687,0.588   c-0.273,0.732-0.776,0.635-1.063,1.43s-1.187,2.061-1.774,2.732c-0.591,0.671-2.047,1.763-2.677,1.64   c-0.63-0.122-1.272,0.146-1.339-0.522s-0.598-0.967,0.379-2.282c0.975-1.316,2.335-1.903,2.606-2.636   c0.272-0.732,0.336-1.049,1.051-1.695s1.306-0.663,1.857-1.144c0.553-0.482,1.252-1.721,1.83-2.001   c0.578-0.279,1.31-0.007,1.232-0.612c-0.08-0.604-0.245-0.768,0.636-1.251c0.879-0.483,1.409-0.513,1.028-0.913   c-0.38-0.4-0.966,0.925-0.421-0.867s1.764-2.341,1.839-2.719c0.071-0.379-1.08,0.836-0.913-0.701   c0.169-1.538,0.591-2.7,0.828-3.244c0.236-0.543-0.174,0.229,0.346-1.438c0.521-1.666,0.862-3.76,0.862-3.76   s-1.352,1.921-1.884,2.361c-0.161-0.018-0.627,0.018-1.759,0.203c-3.109,0.509-2.367,0.392-3.472,1.027   c-1.107,0.637-1.849,0.753-2.602,1.263c-0.755,0.508-3.65,3.283-4.332,3.085c-0.683-0.197-0.81,1.807-0.888-0.827   c-0.077-2.633-0.074-2.306,0.381-4.313c0.228-1.001,0.442-1.434,0.579-1.588c-0.061-0.271-0.05-0.987-0.017-1.642   c0.045-0.907,0.105-1.223-0.255-0.704c-0.363,0.52-1.043,0.649-1.002-0.915c0.042-1.562,1.343-3.207,0.037-2.546   c-1.308,0.662-1.573,0.351-1.786,0.766c-0.212,0.418-1.579-0.961-1.571-1.68c0.008-0.718-0.199-2.004-0.121-1.398   c0.079,0.605-0.493-0.16-0.774-1.066c-0.282-0.906-0.502-2.127-0.539-1.938c-0.038,0.19-0.276,0.405-0.51-1.08   c-0.237-1.486,0.961-3.938,0.021-3.14c-0.941,0.8-1.671,0.854-1.573,2.706c0.097,1.852-0.098,2.861-0.853,3.37   c-0.753,0.507-0.819-0.16-1.383,0.714c-0.562,0.871-0.856,0.028-1.125,1.416c-0.271,1.389-0.371,1.565-0.834,1.934   c-0.466,0.368-1.313,0.006-1.589,0.412c-0.272,0.403-1.984,0.791-1.984,0.791s-0.557-2.53-0.711-1.055   c-0.157,1.476-0.269,2.044-0.326,3.014c-0.056,0.971,0.414,1.914,0.113,2.116c-0.302,0.205-0.577-2.075-0.302,0.205   c0.277,2.279,0.187,4.094,0.188,4.421c0.003,0.329,1.385,2.3-0.96-0.12c-2.344-2.42-2.298-3.655-3.513-4.153   c-1.212-0.497-1.628-0.381-2.16-0.681c-0.529-0.301-1.26,0.083-2.6-1.096c-1.344-1.178-1.622-1.429-2.064-1.841   c-0.443-0.414-1.076-0.864-0.196,1.009c0.88,1.872,0.985,3.007,0.788,3.689c-0.197,0.68-0.814,0.822-0.521,1.665   c0.297,0.843-0.486,0.822-0.486,0.822s0.154,0.554,0.669,2.29c0.513,1.736-0.855,0.357,0.275,1.952   c1.129,1.595,0.349,1.574,1.831,3.04c1.481,1.466,0.833,2.452,2.075,4.136c1.245,1.681,2.82,4.018,3.189,4.809   c0.37,0.792,1.266,3.259-0.646,1.644c-1.911-1.617-0.479-0.226-2.474-3.101c0,0-0.622-0.514-0.966-1.432   c-0.346-0.918-0.205-0.629-1.521-1.605c-1.314-0.976-1.555-1.088-1.576-2.335c-0.019-1.247-0.033-1.513-1.393-1.581   c-1.362-0.068-1.424,0.247-2.029-0.001c-0.606-0.25-1.52-1.277-1.52-1.277s-0.149,0.429-0.982,0.005   c-0.835-0.424-1.1-0.409-2.063-1.186c-0.962-0.777-3.063-2.758-3.105-3.551c-0.04-0.793-0.126-0.024-0.037,2.546   c0.089,2.571,0.432,2.834,0.188,4.095c-0.246,1.263-0.326,0.329-0.596,1.718c-0.271,1.389-0.561,1.528-0.277,2.435   c0.28,0.905-0.085,0.769,0.526,2c0.611,1.232,0.087,1.917-0.415,2.472c-0.501,0.558-1.119,0.372-1.291,1.257   c-0.172,0.883-0.299,0.529,1.095,2.11c1.395,1.582,2.116,1.918,2.371,2.622c0.258,0.704-0.677,0.783,0.637,1.104   c1.312,0.32,2.439,1.26,2.226,1.349c-0.215,0.091,1.253,0.965,1.253,0.965s0.618,0.186,1.071,0.208   c0.454,0.022,0.455,0.35,0.811,0.55c0.353,0.2-0.657,0.003,1.476,0.484c2.134,0.479,1.821,1.073,2.139,1.462   c0.318,0.39,1.67,1.177,1.663,2.222l0.078,0.277c0,0,0.244,1.097,0.082,1.26c-0.163,0.164-0.941,0.799-1.243,0.676   c-0.304-0.124-1.634-1.038-2.292-1.689s-0.824-0.816-1.644-0.974c-0.82-0.16-0.696-0.463-1.993-0.519   c-1.298-0.058-0.568-0.111-2.296-0.316c-1.729-0.205-0.012,0.063-2.737-0.4c-2.725-0.466-2.267,0.54-3.077-0.336   c-0.81-0.879-1.43-1.064-1.43-1.064s-0.768,0.243,0.63,2.151c1.396,1.908,1.272,2.211,1.869,3.179   c0.598,0.967,0.751,1.193,1.462,2.247c0.711,1.057-0.376,0.583,1.095,2.112c1.47,1.53,1.081,1.519,2.549,2.722   c1.466,1.201,1.583,1.617,2.267,2.143c0.685,0.525,2.213,1.085,2.213,1.085s-0.327,0.329,1.125,0.938   c1.453,0.61,2.236,0.959,4.19,1.339c1.955,0.38,4.588,2.331,5.795,1.846c1.209-0.484,0.541-0.417,3,0.061   c2.46,0.478,1.391,0.598,1.293,1.43c-0.096,0.832-0.464,7.11-7.999,16.905c0,0,0.834,0.098,1.185,0.296   c0.355,0.2,1.293,1.103,1.293,1.103s6.323-12.322,7.083-16.232c0.76-3.912,4.027-3.538,6.453-2.542   c2.425,0.993,4.227,0.82,4.227,0.82l0.159-0.492l0.707,0.071l1.035,0.071c0,0,0.29,0.187,0.402-0.054   c0.111-0.239,0.412-0.771,0.866-0.748c0.454,0.023,1.146,0.157,1.411,0.144c0.266-0.015-0.126-0.023,0.832-0.23   c0.955-0.207,1.409-0.185,1.913-0.414c0.502-0.23,2.212-0.945,2.604-0.934c0.391,0.01,0.665-0.396,0.953-0.534   c0.291-0.142,1.098,0.081,1.473-0.5c0.375-0.582-0.066-0.668,1.191-1.078c1.259-0.41,1.248-0.019,2.313-1.121   s1.342-1.179,2.424-1.688c1.079-0.511,1.479-1.547,2.759-2.41c1.146-0.772,1.748-1.437,2.384-1.609   C324.226,283.801,323.494,283.722,322.817,283.353z"
       id="path25" /></g><path
     d="M340.559,49.375c-0.795-0.066-2.518-0.994-2.188-1.458c0.333-0.464-2.316,0.794-2.979-0.397  c-0.662-1.193-0.066-1.127,0.464-1.988c0.53-0.861-0.928-0.729-1.324-0.794c-0.396-0.067,4.504-6.227,2.318-6.424  c-2.185-0.199-5.63,1.458-5.364-0.133c0.265-1.59,1.257-1.921,1.06-1.921c-0.2,0-1.192,1.193-0.862-0.264  c0.332-1.458,0.927-3.313,0.927-3.313l-2.847-0.065c0,0,0.928-6.359,0.86-6.889c-0.065-0.529-2.251,0.795-2.517,0  c-0.265-0.794,0.663-2.714,0.066-2.583c-0.596,0.134-0.861,0.598-0.861-0.065c0,0,1.523-3.643,0.795-4.505  c0,0-0.463,0.067-1.126,0.199c-0.662,0.132-1.06,0.596-1.126-0.199c-0.066-0.794-0.529-3.577-0.529-3.842  c0-0.263-0.661,1.062-1.259,0.464c-0.595-0.595,0.598-4.039,0.199-3.84c-0.397,0.198-0.397-0.199-0.132-0.862  c0.203-0.509,0.056-0.431-0.024-0.368c0.213-0.186,1.658-1.435,2.209-1.618c0.597-0.2,1.723-1.524,1.723-1.524  s-1.061-0.199-2.45-0.131c-1.393,0.066-3.444,0.331-3.975,0.594c-0.53,0.266-1.921,0.928-2.915,1.325  c-0.993,0.398-2.119,1.325-2.184,0.132c-0.068-1.192-0.397-1.787-1.325-0.794c-0.928,0.993-3.313,2.583-3.313,2.583  s0.928-3.046-0.331-2.119c-1.259,0.927-3.378,2.517-3.643,2.782c-0.266,0.265-1.854-1.855-1.723-2.518  c0.132-0.662-1.522,1.126-2.384,2.187c-0.86,1.059-0.331,2.98-0.993,2.119c-0.663-0.862,0.133-2.318-0.663-1.126  c-0.794,1.192-2.119,2.782-2.384,2.385c-0.266-0.398-1.458-3.644-1.855-2.65c-0.396,0.994-1.722,5.1-2.385,5.431  c-0.661,0.331-0.793-0.465-0.793-0.465s-0.861,2.783-1.391,2.584c-0.53-0.198-3.245-3.378-3.18-3.775  c0.067-0.397-2.186,6.424-2.914,5.96c-0.729-0.463-1.061-0.397-1.061-0.397s0.265,2.65-0.264,2.915  c-0.53,0.263-2.583-4.04-3.18-4.637c-0.596-0.596-0.729,0.463-0.729,0.463s-3.112-3.511-2.979-7.351  c-0.397-1.258-0.266-0.265-1.061,0.993c0,0-0.928,5.961-2.186,4.371l0.265-0.729c0,0-0.927,2.319-1.788,2.583  c-0.861,0.266-0.928-1.854-1.788-0.662c-0.861,1.192,0.065,3.245-0.927,4.835c-0.361,0.577-2.008,0.2-1.922-0.927  c0,0-1.258,4.569-1.258,5.033c0,0.464-2.186-1.854-2.716-1.325c-0.528,0.53-0.528,4.041-0.662,4.836  c-0.131,0.795-1.523-0.132-1.721,0.398c-0.2,0.529,0.991,2.118,0.661,2.582c-0.331,0.463-4.106-0.064-4.569-0.861  c0,0-1.126-1.455-0.597,0.797c0.53,2.25-0.397,3.576,0.53,4.503c0.928,0.927,1.722,1.457,1.391,1.789  c-0.331,0.331-2.782-1.259-2.649-0.133c0.133,1.126,2.583,3.178,1.391,4.105c-1.191,0.928-4.039-0.331-4.77,0.663  c0.663,1.59,1.723,3.708,2.253,4.438c0,0,0.265,0.332-0.663,0.463c-0.927,0.132,1.06,2.052,1.59,2.649  c0.53,0.596-1.59-0.53-1.59,0.397c0,0.928,3.114,2.384,1.988,3.577c-1.127,1.192-4.04,0.662-4.77,0.596  c-0.728-0.066,0.265,4.04,1.392,4.967c1.125,0.927-0.132,0.397-0.662,0.596c-0.53,0.199,1.521,1.458,2.118,2.65  c0.597,1.193-1.126,0.265-0.926,1.126c0.197,0.861,3.708,2.913,3.642,3.111c-0.066,0.2-1.324,1.723-1.324,1.723  s4.304,2.252,4.106,2.65c-0.199,0.397-1.192-0.266-0.397,0.728c0.795,0.994,2.648,1.193,2.648,1.193s-0.463,2.25-0.993,2.449  c-0.53,0.199,2.119,2.517,5.231,1.59c0,0,0.134,0.596,0,0.994c-0.131,0.397,0.267-0.464,1.722-0.464  c1.458,0,2.719-0.463,2.253,0.265c-0.463,0.728,0,2.252-0.992,3.113c-0.995,0.861,5.033,0.198,5.761-0.265  c0.729-0.463,0.199,0.397,0.199,0.728c0,0.33,1.789-1.391,2.584-1.589c0.795-0.199-0.795,1.523,0.795,0.729  c1.588-0.794,3.442-3.179,4.105-4.372c0.662-1.192,6.293-6.159,8.146-6.954c1.854-0.795,2.383-0.729,2.782-1.126  c0.179-0.18,0.399-0.739,0.661-1.292c0.058,0.682,0.132,1.211,0.132,1.211c0.089,1.101,0.883,3.804,1.325,4.905  c0.441,1.102,1.325,9.012,1.325,9.012c0.132,2.251,0.265,9.609,0.265,9.609l1.457-1.2c0,0,0.309-2.303,0.221-6.207  c-1.236-2.405-1.59-11.013-2.384-13.417c-0.607-1.834-0.699-3.55-0.669-4.884c0.398,0.49,0.521,1.46,0.183,2.33  c0,0,1.59,2.186,2.716,3.444s1.457,1.457,1.523,3.246c0.066,1.788,0.86,4.106,0.86,5.497c0,1.39-0.065,2.583,0,2.914  c0.066,0.332,1.06-1.325,0.994-0.462c-0.067,0.86,1.061,2.914,1.656,3.245c0.597,0.331,0.661-0.53,0.729-0.794  c0.065-0.265,3.245,2.716,4.502,1.855l0.598-2.319c0,0,3.71,1.192,4.105,0.928c0.329-0.221,0.245-1.25-0.095-1.522  c0.821,0.234,3.603,0.979,4.334,0.528c0,0,0.131-1.192,0.131-1.458c0-0.263,4.24,0.53,4.24-0.133c0-0.662-0.266-1.125-0.266-1.125  l2.253-0.595l-0.266-0.598c0,0,3.18-0.86,3.444-1.456c0.266-0.596-2.186-2.915-2.517-3.378c-0.332-0.464,4.106-0.464,4.106-0.464  s-1.324-1.192-0.795-1.589c0.53-0.397,3.643-0.465,3.313-0.927c-0.333-0.464-0.995-0.397-0.73-0.663  c0.266-0.265,4.107-1.854,4.306-2.385s-1.06-0.53-1.854-1.325c-0.793-0.794-0.793-0.794-0.793-0.794s2.252-0.861,2.382-1.193  c0.134-0.331-1.258-0.529-1.058-0.927c0.198-0.397,3.441-0.728,3.642-3.178c0,0-1.192,0.199-2.318-0.596  c0,0,0.861-0.465,1.392-0.795c0.529-0.331,0.133-0.861,0.992-1.258c0.862-0.397,1.525-1.59,1.525-1.59s-1.325-0.928-2.055-0.994  c-0.729-0.066,3.312-2.384,3.312-2.384l-1.522-1.258l2.053-2.251l-1.061-0.398c0,0,2.054-4.833,3.444-6.026  C346.784,46.991,341.354,49.44,340.559,49.375z"
     id="path27" /><g
     id="g29"><path
       d="M209.384,47.511c-10.146-4.507-10.709-0.563-13.528-0.186c-2.818,0.375-2.818-0.377-2.818-2.631   c0-2.253,14.277-3.568,14.277-3.568c5.263-5.072,5.073-8.455,5.073-8.455c1.881-3.567-1.501-3.943-1.876-5.822   c-0.378-1.88,0.186-3.007,2.815-4.32c2.632-1.317,1.506-3.195,0.189-5.263c-1.313-2.065,0.563-6.386-0.189-7.7   c-0.749-1.314-2.066-4.509-2.066-4.509s-10.521-2.253-16.532-0.564c-6.012,1.691-4.321,5.073-5.822,6.952   c-1.502,1.878-4.695-2.256-5.637-2.256c-0.938,0-4.505,4.51-5.447,6.202c-0.938,1.69,0.942,11.082,0,12.396   c-0.938,1.316-2.44-0.563-2.44-2.818c0-2.253-0.379-7.324-2.065-10.707C171.621,10.88,162.98,1.676,162.98,1.676   c-9.393,6.575-13.524,13.714-14.652,16.53c-1.127,2.818,0.375,9.207,0.564,10.708c0.189,1.503,2.443,5.823,2.443,5.823   c0,5.261-1.127,2.068-1.127,2.068c-4.699-10.897-14.841-6.764-14.841-6.764c1.502,2.255-0.189,9.393-0.189,9.393   c-2.065,23.107,8.641,25.172,8.641,25.172c1.506,1.502,5.637,0.754,10.521-0.563c1.331-0.358,2.375-0.645,3.201-0.875   c-2.752,3.186-6.167,6.835-7.252,7.811c-1.912,1.72-12.555,12.326-15.11,11.467c0,0,2.555,4.298,2.342,6.019   c0,0,12.342-13.186,14.896-14.619c0,0,4.675-4.722,7.898-8.399c-3.671,15.908,4.452,22.012,6.426,20.576   c2.066-1.501,1.876,0.188,1.876,0.188c3.193,4.133,16.532,3.946,18.972,2.067c2.444-1.878-1.687-9.204-1.687-9.204   c-3.382-5.637,0-3.946,0-3.946c7.324,9.204,12.023,4.507,12.023,4.507c3.941-1.314,5.632-2.629,6.949-5.26   c1.104-2.209,1.691-2.254,1.691-2.254c7.703-2.816,7.139-6.95,9.205-9.955c1.944-2.83,3.057-10.486,3.18-11.375   C218.816,50.99,217.693,51.206,209.384,47.511z"
       id="path31" /><path
       d="M218.963,50.705c0,0-0.005,0.031-0.013,0.087C218.98,50.748,218.963,50.705,218.963,50.705z"
       id="path33" /></g><g
     id="g35"><path
       d="M315.348,147.827c0,0-0.001,0.021-0.002,0.05C315.35,147.848,315.348,147.827,315.348,147.827z"
       id="path37" /><path
       d="M333.485,161.502c-0.67-0.669-1.563-0.39-1.563-0.39c-1.282-0.727-4.018,0.167-4.018,0.167c-1.227,0-0.948,0-0.893-0.392   c0.056-0.39-1.45-0.055-2.233-0.167c-0.779-0.112-1.451,0.112-1.731,0.112c-0.277,0-0.055-0.448-0.669-0.727   c-0.612-0.278-2.232,0.223-3.349,0.279c-1.116,0.056-2.063-0.056-2.567,0.224c-0.503,0.279-2.735,1.507-3.852,1.618   s-2.176,1.173-3.237,1.451c-1.059,0.279-0.949,0.502-1.339,0.614c-0.39,0.111,0.335-0.614,1.116-1.228   c0.781-0.615,4.02-2.011,5.191-2.122c1.171-0.11,3.014-1.896,2.679-2.511c-0.335-0.614-0.502-0.501,0.278-0.949   c0.783-0.445,1.564-0.279,2.29-0.67c0.726-0.39,1.896-1.117,2.623-2.177c0.726-1.061-1.062-0.279-1.563-0.669   c-0.503-0.392,0.445-0.448,1.509-0.781c1.06-0.336,2.007-1.396,2.566-2.458c0.557-1.059-1.061-0.221-0.894-0.724   c0.169-0.502,2.344-1.173,2.344-1.173s-0.334,0,0.112-0.224c0.446-0.223,0.446-0.838,0.948-1.45c0.501-0.613-0.335-0.445,0-0.613   c0.336-0.168,0.838,0,1.395-0.223c0.56-0.224,2.457-2.625,2.291-2.512c-0.169,0.111-1.117,0.111-1.786,0.166   c-0.67,0.057-0.615,0.225-1.175,0.28c-0.557,0.057-0.611,0.057-1.395,0.948c-0.779,0.894,0.335-0.725-0.502-0.613   c-0.838,0.112-2.232,1.395-2.232,1.395c-1.73,1.452-0.559-0.445-0.559-0.445c-0.837-0.503-1.786,0.558-1.786,0.558   c-0.893,0.39-1.506,0.838-1.952,1.172c-0.447,0.335,0-0.782,0-0.782c-0.838,0.167-1.507,0.559-3.237,1.339   c-0.963,1.824-0.959,0.341-0.95,0.05c-0.008,0.069-0.059,0.19-0.334,0.23c-0.392,0.055-1.285,0.725-2.121,1.283   c-0.836,0.558-2.567,2.121-3.964,3.182c-1.396,1.059-1.506,2.343-1.842,2.622c-0.335,0.28-1.507,1.284-2.008,1.619   c-0.504,0.337-0.448-0.166-0.335-0.669c0.11-0.502,1.563-1.171,2.063-2.065c0.502-0.892,1.618-3.015,1.843-3.685   c0.222-0.669,0.837-1.842,1.618-2.344c0.781-0.502,0.446-1.06,1.396-2.902c0.947-1.841,1.673-1.394,1.339-1.955   c-0.335-0.556-0.56-0.501-0.278-0.668c0.278-0.168,1.116-1.061,1.172-1.509c0.055-0.445,0.167-1.226,0.167-1.226   s-1.62,0.836-1.507,0c0.111-0.838,2.009-1.786,1.674-1.843c-0.334-0.055-1.228,0.559-0.334-0.724   c0.893-1.285,0.446-1.843,0.223-1.788c-0.223,0.057-0.56,0.334-0.948-0.055c-0.392-0.392,1.786-3.125,1.506-3.016   c-0.277,0.113-1.117,0.503-0.949-0.278c0.169-0.782,2.456-1.841,2.232-1.787c-0.224,0.057-1.116-0.055-0.779-0.39   c0.333-0.334,1.953-1.339,1.953-1.507c0-0.167-0.504,0-0.28-0.392c0.225-0.39,1.452-1.005,1.396-1.396   c-0.055-0.391-0.335,0.058-0.278-0.559c0.057-0.614,0.726-2.064,0.726-2.064s-1.618,0.614-1.843,1.45   c-0.224,0.838-1.172,0.112-1.563,0.449c-0.39,0.333-0.78,0.612-1.171,1.283c-0.392,0.67-0.615,0.223-0.67,0.392   c-0.057,0.166-0.334,0.055-0.893,0.444c-0.559,0.392-1.676,1.619-1.843,2.512s-0.668-0.613-0.668-0.613   c-1.899,0.725-2.364,3.201-2.364,3.201c-0.373,1.04-0.446-0.747-0.817-0.299c-0.373,0.446-2.011,2.679-2.234,3.647   c-0.223,0.966-0.447-0.744-0.595-0.225c-0.148,0.521-1.488,1.936-1.711,2.829c-0.224,0.893-0.446,0.148-0.819,0.968   c-0.373,0.818-0.818,2.38-1.488,2.606c-0.671,0.223-0.968,2.307-1.489,3.572s-1.338,5.729-1.414,6.175   c-0.073,0.447-0.297-5.06,0.15-6.772c0.446-1.711,0.669-2.53,0.742-3.572c0.077-1.043-0.52-2.157-0.223-3.647   c0.3-1.487,0.075-1.412,0.075-2.753c0-1.34-0.707-2.381-0.707-2.381c0.148-3.906-1.077-3.906-1.077-3.906   c-0.113,0.669-1.64,3.31-1.007,0.893c0.968-3.87-0.743-4.02-0.743-4.02c-1.266,2.047-0.911,0.448-0.911,0.448   c0.223-2.066-0.224-4.187-0.392-4.075c-0.168,0.111-1.116,0.445-0.95,0.224c0.169-0.224,0.336-0.672,0.336-1.119   c0-0.446-0.502-0.446-0.336-0.836c0.169-0.392,0.169-1.228-0.056-1.117c-0.222,0.112-0.278,0.112-0.389-0.168   c-0.112-0.278,0.167-1.226-0.225-1.841c-0.39-0.614-0.725-0.95-0.725-0.95c-1.341,1.061-0.335,2.568-0.335,3.014   c0,0.447-0.727-0.781-0.838-0.278c-0.112,0.503,0.335,2.511,0.446,3.237c0.111,0.727-0.947-0.669-1.171-0.167   c-0.224,0.502,0.278,3.069,0.224,3.294c-0.056,0.222-0.561-1.899-1.229-0.17c-0.671,1.733-0.037,3.519-0.037,3.519l-1.189-0.894   c0,0-0.15,0.744-0.3,1.19c-0.148,0.447-0.37,0.968-0.67,1.563c-0.297,0.595,0.076,1.043,0.076,1.638   c0,0.596-0.149,1.042-0.149,1.042s-0.299-0.373-0.745,0.074s-0.298,1.042-0.446,1.266c-0.147,0.222,0,0-0.222,0.893   c-0.225,0.894,0.743,2.976,0.743,2.976s0,0-0.446,0.745c-0.447,0.744,0.296,1.043,0.296,1.936c0,0.893,0.671,3.645,0.671,3.645   s-0.223,0.895-0.521-0.668c-0.297-1.564-1.043-1.713-2.009-2.904c-0.968-1.189-0.67,0.374-0.67,0.374   c-0.597-3.052-3.424-4.392-3.424-4.392l-0.262,1.303c-0.482-2.01-3.161-4.616-3.272-4.094c-0.112,0.52-0.559,2.978-0.483,1.488   c0.073-1.488-2.234-3.199-2.531-2.902c-0.296,0.298-0.223,1.08-0.521,0.708c-0.298-0.373-2.494-3.127-2.604-3.014   c-0.113,0.11,0.223,1.599-0.224,0.892c-0.446-0.707-1.639-2.902-1.749-2.27c-0.111,0.633-0.382,0.214-0.382,0.214   c-0.584-1.423-1.507-1.312-1.507-1.312c-1.45-1.089-1.396-0.782-1.45-0.447c-0.057,0.335,0.419,1.089,0.781,1.34   c0.361,0.252,0.111,0.53,0.111,0.53c0.056,0.588,0.781,0.978,0.865,0.978c0.083,0,0.53,0,0.615,0.921   c0.082,0.921,0.92,1.479,0.92,1.479c-0.336,1.284,2.037,2.875,2.037,2.875s0.419,0.392-0.141,0c-0.557-0.39-1.09-0.335-1.09-0.335   c-0.193,2.177,2.255,3.954,2.255,3.954c-0.672-0.446-0.97-0.223-0.97-0.223s0,1.189,0.373,2.829c0.37,1.635,1.487,1.934,0.966,2.38   c-0.52,0.447,0.894,1.713,0.894,2.084s3.201,2.009,2.159,2.306c-1.043,0.298,1.945,3.806,1.945,3.806   c-2.15-1.369-4.019-1.312-4.019-1.312l-0.048,0.743c-0.148-0.408-3.387-1.525-3.906-1.6c-0.521-0.074-0.224,1.34-0.634,0.484   c-0.409-0.856-2.94-0.93-3.608-0.817c-0.556,0.092-0.144,0.564,0.016,0.724c-0.43-0.323-2.849-1.157-2.919-0.948   c-0.075,0.224,0.187,0.968-0.408,0.446c-0.596-0.52-1.785-0.968-2.047-0.893s-0.485,0.558-0.485,0.558   c-0.816-1.227-1.6-0.929-1.6-0.929c-1.152-0.894-2.828-0.559-2.568-0.446c0.264,0.111,0.783,0.781,1.192,1.375   c0.41,0.597-0.073,0.597,0.447,0.632c0.52,0.039,0.742,0.076,0.779,0.448c0.039,0.372,0.41,0.335,0.893,0.445   c0.486,0.113,4.243,1.043,2.458,1.006c-1.788-0.036-0.372,0.746-0.372,0.746c0.447,0.221,2.306,0.817,3.422,1.115   c1.116,0.297-0.52,0.148-1.189,0.372c-0.67,0.223,0.073,0.373,0.818,0.895c0.744,0.52,0,0.52,0.298,0.816   c0.297,0.297,1.489,0.077,2.455,0.077c0.967,0,0.225,0.52,0.15,0.966c-0.076,0.446-0.969,0.073-1.564,0.223   c-0.595,0.148,0.374,0.075,0.148,0.893c-0.223,0.818,2.011,0.148,1.862,0.372c-0.15,0.225-0.744,0.521,0.521,0.521   c1.266,0,3.349,0.743,2.159,0.743c-1.193,0-0.523,0.746,0.966,1.191c1.489,0.449,0.968,0.374,0.67,0.669   c-0.297,0.298,0.893,0.672,2.307,1.043c1.415,0.372,1.042,0.149,1.042,0.149c0.298,0.075,1.339,1.563,3.722,1.861   c6.177,0.893,5.877,1.637,5.877,1.637c-3.271-1.861-5.581-0.371-6.323-0.371c-0.743,0,1.266-0.745-3.199,0.668   c-4.467,1.414-3.945,2.011-4.467,2.382c-0.521,0.371-1.86,0.223-2.681,0.446c-0.815,0.224-0.743,0.67-1.711,0.968   c-0.967,0.298-1.19,0-1.711-0.074c-0.521-0.077-1.414,0.37-2.158,0.894c-0.744,0.519-1.116,0.519-2.009,0.816   c-0.894,0.298-1.787,0-2.902,0.449c-1.116,0.445,1.043,0.296,2.232,0.223c1.191-0.075,0.744-0.075,2.382-0.15   c1.636-0.073,1.041,0.075,2.232-0.297c1.063-0.333,2.538-0.398,2.709-0.408c-0.196,0.011-1.029,0.631-0.44,0.557   c0.597-0.075,2.048,0.335,2.419,0.26c0.374-0.074,1.638-0.26,1.378-0.037c-0.262,0.223-0.817,0.894-0.371,1.041   c0.446,0.148,1.376-0.073,1.449,0.113s-0.334,0.445,0.224,0.333c0.56-0.11,2.792-0.707,3.237-0.893   c0.447-0.185-0.112,0.26-0.931,1.08c-0.817,0.818,1.824-0.558,1.711-0.334c-0.109,0.223-0.26,0.521,0.262,0.296   c0.521-0.224,2.827-0.782,2.717-0.482c-0.113,0.297,0.37,0.333,0.37,0.333s2.011-0.594,2.792-0.707   c0.78-0.111,2.121-0.706,2.902-0.968c0.783-0.259,1.451-0.41,1.153,0.075c-0.297,0.485-3.945,1.339-3.945,1.339   c-0.706,0.298-1.784,1.34-2.156,1.34c-0.373,0-2.418,1.155-2.492,1.525c-0.076,0.373,0,0.894-0.225,1.005   c-0.223,0.112-1.749,1.377-2.232,1.86c-0.484,0.485-0.111,0.857-0.669,0.931c-0.559,0.074-0.969,0.968-1.786,2.009   c-0.82,1.043-2.94,4.467-2.458,4.057c0.483-0.41,2.532-2.085,2.865-2.605c0.337-0.521,1.677-1.116,1.677-0.894   c0,0.224,0.073,0.449,0.52,0.039c0.446-0.41,1.526-1.08,1.526-0.781c0,0.297,0.669-0.077,1.376-0.672s1.19-0.929,1.19-0.929   s0,0-0.038,0.147c-0.036,0.15-0.073,0.337-0.26,0.857c-0.186,0.52,0.56,0.111,0.932,0.037c0.371-0.074,1.396-0.353,1.396-0.353   c0.389-0.67,0.612-1.061,0.724-0.725c0.11,0.335,0.837,0.279,1.673-0.614c0.838-0.894,2.373-2.344,2.373-2.344   c-1.618,1.786-0.78,2.623-0.78,2.623c0.056,0.56,0.976-0.083,1.423-0.474c0.446-0.39,1.229-0.362,1.229-0.362l-0.112-0.057   c3.423-2.753,6.847-8.223,6.847-8.223s1.024-1.599,0.911-2.269c-0.027-0.163-0.015-0.308,0.038-0.437   c0.333,0.508,0.627,0.951,0.744,1.106c0.334,0.446,2.344,11.498,2.566,13.731c0.224,2.231,3.183,17.414,3.183,17.414   c-0.504,4.464,0.78,3.236,0.78,3.236c0.374,0,1.043-0.446,0.969-0.818c-0.075-0.373,0.446,0-0.372-2.158   c-0.819-2.158-5.731-31.48-5.731-31.48s0.15-0.037,0.361-0.112c5.596,6.282,11.416,7.387,11.416,7.387   c1.34,0.39,1.508-0.615,0.948-1.06c-0.557-0.448,1.564,0.333,2.902,0.39c1.341,0.055,3.35,0.055,5.416-0.112   c2.063-0.168,0.166-0.727,1.34-0.448c1.17,0.279,1.617,0.225,2.623,0.225c1.003,0,0.948,0.167,1.898,0.39   c0.947,0.225,1.337,0.67,2.12,0.781c0.779,0.114,2.121,1.173,2.121,1.173s-1.396-1.617-2.121-2.456   c-0.727-0.836-1.23-0.947-1.899-1.507c-0.67-0.558-0.557-0.669-1.617-1.06c-1.062-0.392-1.675-0.336-2.513-1.117   c-0.837-0.78-1.396-0.613-1.396-0.613c-1.563-0.614-1.117,0.309-2.568-0.194c-1.45-0.503-1.45,0.641-3.182,0.641   c-1.729,0-2.176,0-2.788,0c-0.615,0-1.395-0.753-2.066-0.808c-0.67-0.058-0.893-0.069-0.727-0.572   c0.169-0.502,2.291,0.38,2.291,0.38h0.222c1.954,0,2.345-0.589,4.521-0.589c2.178,0,2.287-1.047,3.125-1.216   c0.838-0.167,0.67-0.411,2.232-0.411s1.676-1.35,2.68-1.52c1.005-0.166,2.345-1.26,1.842-1.874   c-0.503-0.615,0.057-0.518,1.283-0.518c1.229,0,1.061-0.736,2.289-1.406c1.228-0.669,0.78-0.226,1.729-0.283   c0.95-0.055,1.284-0.838,2.737-1.341c1.449-0.502,1.563-0.334,2.399-0.503c0.836-0.168,1.284-0.169,1.284-0.169   S334.156,162.171,333.485,161.502z"
       id="path39" /></g><path
     d="M421.506,297.618c0,0-4.669-0.53-6.261-0.423c0,0,4.987-7.112,4.244-10.296c0,0-4.457-0.106-5.624,0.637  c0,0,5.624-6.367,5.094-8.809s-4.775-0.319-5.201-0.105c-0.424,0.211-0.424,0.211-0.424,0.211s4.139-6.261,1.911-9.338  c0,0-3.928,1.378-5.201,2.333c-1.273,0.956,3.024-3.768,1.91-10.825c0,0-1.91-0.743-3.555,0.902c0,0,1.645-6.578,0.266-8.118  c0,0-3.942,0.101-5.924,2.815c0,0,2.229-7.483,0.849-10.188c0,0-1.519-0.103-3.421,1.328c-0.044,0.034,0.387,0.013,0.344,0.051  c-1.221,1.062,0.478-5.042-2.122-7.694c0,0-2.176-0.265-3.237,2.068c0,0,1.008-3.766-2.76-7.374c0,0-1.062-0.214-1.326,0.742  c0,0-0.053-2.866-2.813-2.547c0,0-0.319-0.425-0.477-0.425c-0.16,0-0.214,0.318-0.478,0.425c-0.267,0.105-1.912,0.425-1.858,2.176  c0,0-0.85-0.106-0.85-0.266s-2.388,3.343-2.6,4.033c-0.213,0.69-1.167,2.015-1.062,2.759c0.106,0.743,0.902,2.176,0.902,2.176  s-2.229-1.433-3.13-1.38c-0.903,0.054-1.063,2.017-0.903,2.76s-1.963,3.872-0.425,6.103c0,0,0.796,0.955-1.113-0.212  c-1.911-1.169-3.185-0.69-3.768-0.584c0,0-0.792,8.205,1.817,10.063c-1.117-0.521-3.681-1.538-5.851-1.096  c0,0-0.319,5.89,3.132,8.861c0,0-1.435-0.902-2.602-1.221c-1.168-0.317-2.706-0.425-3.29-0.371  c-0.585,0.054-0.954,5.677,1.221,7.801c0,0,0.632,0.559-0.69,0.266c-1.911-0.425-3.13-0.902-3.873-0.212  c-0.74,0.686,0.838,7.638,3.736,9.421c-0.284-0.203-2.543-1.723-5.913-1.161c0,0,0,4.952,4.529,8.206c0,0-4.582-0.68-5.404,0.011  c-0.816,0.685,1.486,5.936,6.496,8.63c0.027,0.016,0.057,0.03,0.085,0.045c0,0,1.299,0.558-0.239,0.531  c-1.539-0.027-6.13,0.822-6.555,1.565c0,0-0.61,2.361,6.184,4.563c0,0,1.325,0.451,0.291,0.557c-1.034,0.106-2.813,0.77-3.343,1.248  c-0.531,0.477-1.565,1.008-1.645,1.354c-0.08,0.344,1.83,2.837,8.993,2.625c0,0-1.989,2.31-2.334,3.265  c-0.346,0.955-0.425,1.564-0.425,1.671c0,0.107,2.096-0.053,3.237-0.158c1.142-0.107,2.945-0.054,3.714-0.425  c0.77-0.371,0.796-0.638,0.69-0.133c-0.106,0.504-0.77,2.334-0.742,2.999c0.025,0.662,0.397,0.715,0.98,0.317  c0.584-0.398,1.751-0.982,2.176-1.433c0.425-0.451,1.274-0.822,1.911-1.221c0.636-0.397,6.818-2.52,6.554-6.845  c0,0-0.347-0.931,0.238-1.486c0.584-0.558,1.618-0.771,2.017-0.371c0.397,0.398,1.007,0.079,0.901,1.194  c-0.105,1.113-2.334,8.754-2.759,10.028s-0.531,1.38-0.451,1.459s1.274-0.052,1.564-0.052c0.292,0,1.487-4.565,1.62-5.069  c0.131-0.504,0.796-5.014,1.061-5.598c0.266-0.584,0.398-1.036,0.77-1.114c0,0,1.977-0.564,2.766,0.129c0,0,0.819,4.605,3.876,5.452  c2.62,0.724,3.396,3.537,3.396,3.537s1.218-1.984,2.279-1.56c1.061,0.425,6.898,2.759,6.686,2.122  c-0.212-0.638-1.379-4.033-1.379-4.033s7.11,2.123,9.339-0.743c0,0-2.547-3.396-3.82-3.608c-1.274-0.212,6.897-2.122,7.429-5.093  c-2.548-1.063-6.367-1.805-6.367-1.805S421.506,300.909,421.506,297.618z"
     id="path41" /><path
     d="M427.064,169.535c-1.384,0-1.523-0.208-3.323,0.069c-1.803,0.276-2.356-0.969-3.117-0.901  c-0.763,0.069-1.732,0.693-1.871-0.068c-0.138-0.763,1.455-0.209,0.139-1.109c-1.316-0.901-2.147-1.455-0.97-1.801  c1.177-0.346,3.532-1.04,2.078-1.524c-1.455-0.485-1.455-0.485-1.455-0.485s-2.631,1.248-1.523,0c0,0,2.008-1.732,1.594-2.632  c-0.417-0.901-0.832-1.594,0-2.218c0.83-0.623,1.385-1.593,2.076-2.563c0.693-0.97,0.832-1.94-0.138-1.94s-3.395,0-2.355-0.762  c1.039-0.762,1.594-1.455,1.316-2.009c-0.277-0.555,1.594-0.97,0.832-2.008c-0.763-1.039-2.078-1.109-1.455-2.217  c0.623-1.109,1.108-1.248,0.831-2.148c-0.277-0.9-0.831,0.208-0.554-0.762c0.276-0.969,1.522-2.563,1.522-2.563  s0.209-1.385-0.483-1.871c-0.693-0.484-0.555-2.771,0.207-3.81c0.763-1.04,0.97-1.316,0.416-1.316s-2.702,1.386,0.138-5.057  c2.841-6.443,2.633-6.443,3.741-9.352c0,0,2.218-5.957,0.555-7.619c0,0-0.07,3.255-0.555,3.741  c-0.484,0.484-1.594,1.455-2.078,2.839c-0.485,1.386-5.126,7.621-5.681,8.175c-0.554,0.554-0.9,1.178-1.662,0.901  c-0.763-0.277-1.871-0.347-2.563,0.346c-0.693,0.692-0.693,0.692-0.693,0.692s-1.524,1.386-2.078,2.009c0,0-1.731-1.801-2.217-1.247  c-0.485,0.554-1.524,3.256-2.771,4.71c-1.247,1.455-2.217-0.276-2.563-0.9c-0.346-0.624-0.346-1.177-1.802,0.485  c-1.453,1.662-3.255,4.918-3.878,2.771s-1.386-5.403-1.732-2.494c-0.346,2.91-0.139,2.01-0.762,2.287  c-0.624,0.276-0.762,0.068-1.939,0.969c-1.178,0.9-1.04,0.9-1.801,0.762c-0.762-0.139-1.109-0.208-2.218-1.108  c-1.108-0.9-1.594-1.247-2.008,0.139c-0.417,1.385-0.694,1.801-2.079,2.216c-1.385,0.416-0.554,1.248-2.078,0.693  c-1.522-0.554-2.078-0.554-2.493,0.277c-0.416,0.832-0.485,1.94-1.386-0.484c-0.9-2.425,0.069-4.988-0.9-4.503  c-0.97,0.485-2.354,0.485-2.84,2.079s-2.147,1.871-2.495,1.871c-0.346,0,0.278,1.108-0.414,2.216  c-0.694,1.109-1.179,0.693-2.217,0.416c-1.04-0.277-1.316-2.494-1.109,0.069c0.104,1.271,0.24,1.519,0.276,1.557  c-0.027-0.011-0.125-0.005-0.346,0.313c-0.622,0.901-0.762,2.355-0.762,2.355s-1.177-0.693-1.663-0.693  c-0.484,0-1.177,0.277-0.83,1.663c0.346,1.386-1.248,1.317-1.248,1.317s0,1.73-0.623,2.285c-0.623,0.554-2.493-2.078-2.632-0.831  s1.246,2.909,0.068,3.395c-1.178,0.484-2.285-0.555-1.939,0.969c0.348,1.524,1.525,2.771,0.069,2.91  c-1.454,0.139-2.217,0.9-1.246,2.078c0.968,1.178,1.802,2.771-0.416,2.701c-2.217-0.069-3.047,0.139-1.801,2.149  c1.246,2.008,1.801,2.008,0.277,2.632s-2.078,0.207-1.109,2.009c0.971,1.801-1.108,2.008-1.246,2.909  c-0.139,0.901,1.246-1.108,2.147,0.762c0.899,1.871-0.762,0.97-0.693,2.563c0.069,1.594,0.624,1.662,1.456,2.632  c0.831,0.97,1.245,0.623,0.761,1.87c-0.483,1.247,0.484,0.9,0.832,2.424c0.347,1.524-3.464-0.484-1.94,1.178  c1.524,1.663,2.287,0.485,3.187,1.524c0.901,1.04-1.731,1.455-0.138,1.731c1.593,0.277,3.948,0.346,2.7,1.178  c-1.247,0.831-1.314,1.524,0.832,1.731c2.147,0.208,2.841-0.346,4.435-1.177c1.592-0.831,1.522-1.663,4.432-2.424  c2.91-0.763,6.443-0.763,6.721-0.832c0.277-0.069-7.759,6.582-9.63,8.867c0,0-6.72,4.018-7.619,7.343l0.277-0.069  c0.209,0-0.208,1.109,1.246,1.248c1.455,0.138,3.117,0.138,3.257-0.416c0.138-0.555-1.871-1.594-0.416-1.386  c1.453,0.208,2.493,0.208,3.464,0.347c0.97,0.138,3.601,1.316,3.046,0.138c-0.554-1.177-1.315-1.87-2.769-2.979  c-1.455-1.109,5.471-5.68,6.926-6.858c1.455-1.178,5.543-5.057,5.681-5.403c0.14-0.347,0.971,0.9,1.524,2.563  c0.555,1.662,1.662,4.503,1.317,5.75c-0.349,1.248-1.248,3.325-1.248,4.78c0,1.455-0.277,2.563,0.068,3.325  c0.347,0.761,0.971-0.97,1.802,0.623c0.83,1.593,0.554,2.84,1.801,3.187c1.247,0.348,2.285-1.455,3.117-0.553  c0.832,0.901,2.286,3.047,3.672,3.047c1.385,0,0-0.276,0.97-1.386c0.969-1.108,0.415-0.484,1.386-1.178  c0.97-0.692,0.83-0.415,1.801,0.208c0.97,0.624,1.939-1.039,1.939-1.039s0.971,0.9,2.009-0.554c1.039-1.455,0.97-2.216,2.703-2.563  c1.73-0.347,3.115-0.139,2.701-1.178c-0.416-1.039-1.316-1.593-0.486-2.078c0.831-0.484-0.139-0.692,1.455-0.97  c1.593-0.277,2.217-0.416,1.938-1.593c-0.276-1.178-0.068-1.386,0.971-1.871c1.039-0.485,1.179-1.248,0.9-2.078  c0,0,3.533-0.415,2.702-1.455s-1.731-0.763-0.901-1.801c0.831-1.04,1.455-1.94,2.217-2.217c0.763-0.277-0.97,0,0.208-1.04  c1.179-1.039,1.663-1.593,1.316-1.939c-0.346-0.346,2.563-0.069,2.147-0.97c-0.415-0.9-0.624-1.593-0.624-1.593  s-0.83-1.108,1.04-1.385c1.87-0.277,2.563-1.247,2.216-1.316c-0.346-0.069-0.761-0.623-1.177-0.762  c-0.415-0.139,0.347-0.416,1.316-1.455s1.108-0.832,0.761-2.009c-0.346-1.178-0.484-1.04,1.524-2.563  C426.374,170.919,428.45,169.535,427.064,169.535z"
     id="path43" /><path
     d="M318.712,385.6c-2.544,0.637-10.083-1.998-10.083-1.998c4.179-6.268,11.627-8.72,11.627-8.72  c-2.055-3.123,2.358-6.69,3.219-7.342c-0.257,0.055-0.968,0.025-2.946-0.47c-3.271-0.816-3.634-1.725-3.815-2.724  s1.817-2.544,1.817-2.544s-0.727-0.363-1-1.726c-0.272-1.361,0.727-0.817,1.453-2.997s-0.817-1.907-2.452-3.27  c-1.634-1.362,0.546-4.633,0.546-4.633c-1.272,1-3.906,2.361-5.359,1.908c-1.453-0.455-1.181-1-1.907-0.182  c-0.727,0.817-1.635,2.361-1.635,2.361c-4.814,2.725-7.084-1.635-7.084-1.635c-0.546,3.542-2.998,7.356-2.998,7.356  c-0.272,1.362-3.633,7.356-4.359,7.63c-0.727-0.727-0.091-1-0.454-3.815s1.726-9.445,2.271-11.354  c0.545-1.906,1.544-6.63,1.544-6.63c-2.815,1.635-5.632,2.271-5.632,2.271c-3.179-1.182-4.541-8.538-4.541-8.538l0.091-0.455  c-3.725,3.725-4.269-5.177-4.269-5.177c-0.273,4.723-3.542,7.267-4.36,7.267c-0.817,0-2.633-1.363-2.18-0.817  c0.454,0.545,0.636,4.087,0.636,4.087c0.091,5.631-1.453,8.266-2.452,8.266s-3.724-3.725-3.724-3.725  c-0.999,1.271,0,4.724,0.181,5.994c0.183,1.272,2.09,6.358,2.453,7.357s0.363,6.448-0.273,6.54c-0.635,0.091-1.725-1.09-2.542-1.726  s-1.271-6.722-1.271-6.722c-0.999,0.091-2.089-0.272-3.271-1.09c-1.18-0.817-1.271-3.27-1.997-4.813  c-0.728-1.544-1.091-4.36-1.091-4.36c-0.182,0.817-2.181,3.18-2.181,3.18c-0.635,0.908-1.906,0.817-1.906,0.817  c-1.816-1.907-3.27-2.726-3.27-2.726c-0.908-0.999-2.997,0.182-3.814-0.363c-0.818-0.544-1.091-0.363-1.091-0.363  c1.727,5.904-0.817,6.268-0.817,6.268c-2.634,0.182-1.634,0.363-1.634,0.363c1.906,1.726,3.723,5.541,3.723,5.541  c2.271,6.176-3.179,6.993-3.179,6.993c-2.725,0-3.906,0.545-3.906,0.545c1.363,0.454,3.452,2.543,3.452,2.543  c1.544,1.181,1.999,3.542,3.088,3.905c1.091,0.363,2.362,1.816,3.906,2.362c1.544,0.545,3.36,3.814,3.36,3.814  c1.726,1.816,1.453,3.542,1.453,3.542c-1.09,0.454-3.996,0.727-3.996,0.727c-4.542,1.09-5.904,0.182-5.904,0.182  c-1.816,4.36-10.081,5.994-10.081,5.994c13.26,2.271,9.537,6.813,9.537,6.813c0.907-0.636,5.903-0.182,5.903-0.182  c2.725,1.544-0.455,6.903-0.455,6.903c7.63-4.814,13.171-4.178,13.171-4.178c1.816,0.727,1.362,3.542,1.362,3.542  c-0.454,1.362,0.635-0.183-1.635,7.447c1.543,0,4.178-3.633,5.813-4.541s6.721-4.359,6.721-4.359  c1.203-2.806,2.306-3.251,2.805-3.292c-0.096,1.7-0.24,4.071-0.352,5.018c-0.182,1.544,0.454,3.542,0.545,4.269  s0.272,3.36,0.545,4.905c0.272,1.544,0.363,6.448,0.363,6.812s1.362,0,1.362-0.545s-1.453-7.357-1.453-8.992s0-5.54-0.091-6.903  c-0.063-0.927-0.039-2.865,0.182-4.409c2.259,0.631,2.998,3.411,2.998,3.411c3.904-1.817,8.81,5.177,8.99,3.814  c0.183-1.362,2.727-1.271,5.269-0.908c2.543,0.363,4.995,2.452,4.995,1.907s-1.634-2.089-1.634-2.089  c-3.815-2.453-3.725-6.722-3.725-6.722c0.454-3.633,8.629-0.544,8.629-0.544c3.634,0.998,4.27-1.272,4.27-1.272  c-1.817,1.362-1.817,0-1.272-1.453c0.546-1.453,1.09-0.182,2.452-0.817s4.178-3.271,4.178-3.271c4.27-1.997,6.903-1.906,6.903-1.906  C316.713,389.687,318.712,385.6,318.712,385.6z"
     id="path45" /><path
     d="M209.527,378.58c0-0.65-1.679-1.404-2.399-1.781c0.653-0.755-0.445-1.887-1.166-2.023c0.137-0.65-1.302-1.68-3.36-2.331  c0.583-1.782-0.855-2.091-1.849-2.057c0.24-0.651-2.401-0.822-2.95-0.685c-1.371-0.995-8.124,1.232-8.124,1.232  s1.268-2.192,2.708-3.702c1.44-1.508,2.467-3.736,2.467-3.736s2.092-1.886,2.571-3.153c1.269-0.617,0.721-2.571,0.446-3.222  c0.446-0.035,0.41-1.407,0.959-2.983c0.549-1.576,0.479-1.92,0.479-1.92s1.03-2.502,0.516-3.223  c0.375-1.474-2.057-2.879-2.057-2.879s1.336-3.051,0.959-4.012c0.274-0.822-0.479-2.158-1.269-2.536  c0.342-0.549,0.104-2.126-0.377-2.812c-0.479-0.686-0.274-1.852-0.651-3.258c-0.377-1.404-1.235,0.036-2.092,1.133  c-1.439-0.104-2.947,1.816-2.947,1.816s-0.412-0.754-0.721-0.856c-0.308-0.104-1.233,0.273-1.44,1.164  c-0.824-0.205-2.365,1.75-3.154,2.469c-0.617-1.233-3.153-2.159-3.153-2.159s0.104-0.206-0.103-0.515  c-0.892,0-2.092,1.201-2.571,3.018c0,0.137-1.029,0.778-1.508,1.602c-2.057,0.856-2.88,3.829-2.88,3.829h-1.507  c0,0-0.446-0.229-0.755,0.49c-0.308,0.721-0.891,1.789-0.891,1.789s-0.136-0.359-0.344,0.053c-0.136,0.961-2.262,4.26-2.262,4.26  s-0.994,1.84-1.336,4.068s-1.851,4.363-2.846,5.736c-0.788-6.173-3.872-10.708-4.558-10.948c-0.137-0.754-2.401-3.878-3.155-3.811  c-0.24-0.686-1.577-1.443-2.022-1.478c0,0.377-1.337,0.648-1.714,1.336c-0.342-1.303-3.635-2.71-3.703-2.197  c-0.445-0.238-2.16-1.164-2.332-0.136c-0.068-0.274-1.199-0.479-1.953-0.479c-0.755,0-1.954-1.439-2.161-1.611  c-0.204-0.172-0.376-0.103-0.479,0.274c-0.104,0.376,0.205,2.467,0.822,5.313c-0.892,0.24-0.72,2.434,0,4.696  c-0.994-0.034-1.474,2.023-1.098,3.703c-0.547,0.445,0.311,4.422,0.618,5.827c-0.96,0.617-0.789,2.193-0.789,2.193  s-0.651,0.377-0.721,0.755c-0.068,0.377,0.686,1.714,0.686,1.714s-0.308,0.138-0.035,0.583c0.069,0.822,2.469,4.113,2.469,4.113  l-0.069,0.789c0,0,2.745,2.674,3.737,3.736c0.995,1.063,2.264,3.051,2.264,4.354c-2.95-0.205-5.932,2.709-5.657,3.086  c-0.172,0.069-1.781,1.749-1.749,3.359c-1.267,0.926-2.296,2.263-2.296,2.263s0.515,0.548,1.062,1.131  c0.651,1.44,4.8,2.777,4.8,2.777s-0.035,0.309,0.068,1.132c4.08,2.503,7.747,1.473,10.901,0.034  c0.035,0.719,1.132,2.124,2.092,3.428c1.61-0.034,1.782-1.783,1.817-4.354c0.515,0.411,0.788-0.239,0.824-1.198  c0.035-0.96-0.687-3.224-0.687-3.224c-0.035-0.787,2.194-0.411,2.332-0.344c0.069,0.035,0.313,0.216,0.862,0.635  c-2.36,6.469-10.407,29.307-10.688,30.853c-0.35,1.916,1.468,2.629,1.468,2.629l9.65-33.154c0.493,0.375,0.938,0.718,0.938,0.718  l-0.035,0.377c-0.344,3.018-0.618,8.468,1.371,9.462c0.926,0.891,2.092-0.584,2.092-0.584l2.674,2.505l0.375-0.378l3.977,1.576  l0.412-1.028l3.429,1.544c0,0,0.068-0.172,0.103-0.687c0.89,0.207,2.502-1.646,3.461-3.324c0.959-1.681-0.959-5.382-0.959-5.382  s5.553,0.272,8.501-0.069c2.948-0.344,1.748-1.304,1.748-1.304s1.131-0.136,3.018-0.377c1.885-0.24,1.713-1.028,1.713-1.028  s0.377,0.034,1.337-1.336c0.959-1.372,1.063-3.086,1.063-3.086s1.199-0.137,2.365-1.577c1.164-1.438,0.994-2.674,0.994-2.674  s1.234,0.035,2.16-0.31c0.926-0.342,0.892-1.404,0.892-1.404s2.366-0.618,2.811-1.132  C211.413,379.163,210.831,378.821,209.527,378.58z"
     id="path47" /><path
     d="M76.541,375.073c0.269-1.726-1.195-8.477-1.587-9.858c-0.395-1.382-3.262-6.458-3.262-6.458l0.021-0.155  c-1.185-5.218-3.813-6.979-3.813-6.979c-2.16-5.414-7.072-13.819-7.39-15.787c-0.319-1.967-1.39-1.96-1.39-1.96  c-2.711,13.348-17.231,22.54-17.231,22.54c-5.32,3.67-10.233,8.603-10.233,8.603c-1.466,2.523-5.239,5.249-6.487,6.088  c-1.25,0.838-1.787,1.696-2.774,2.711c-0.986,1.015-2.002,2.811-2.522,4.099c-0.523,1.289-2.095,3.695-2.095,3.695  c-0.184,0.323-0.321,0.647-0.423,0.989c-0.375,1.255-0.3,2.748-0.475,5.268c-0.221,3.206,0.603,5.689,0.603,5.689  c2.724,18.802,16.689,13.744,16.689,13.744c2.579-1.569,6.368-0.704,6.368-0.704c0.373,3.759-8.083,13.326-8.083,13.326  c0.884,1.255,1.952,0.375,1.952,0.375c3.093-4.098,7.993-12.813,8.906-13.267c0.915-0.453,2.247,0.288,2.247,0.288  c4.12,6.806,7.621,6.756,9.726,7.025c2.106,0.271,3.89-0.286,5.127-0.483c1.238-0.196,4.201-1.601,5.599-2.491  c1.398-0.89,1.999-2.24,2.854-3.343c0.855-1.104,1.651-3.053,1.651-3.053c4.377-5.573,4.415-9.944,4.415-9.944  c-0.432-2.195,0.301-5.668,0.301-5.668C77.802,379.705,76.273,376.798,76.541,375.073z"
     id="path49" /><path
     d="M371.426,420.935c0,0-2.06,5.768-1.791,7.378c0.269,1.611,1.541,1.575,2.158,0.449c0.615-1.123,1.745-7.197,1.745-7.197  c16.855,7.973,34.407-20.469,34.407-20.469c8.186-13.81,9.005-29.249,9.005-29.249c1.053-1.779-0.048-11.944-0.048-11.944  c-0.581-0.944-2.707-9.947-3.409-10.958c-0.699-1.011-2.106-7.896-2.106-7.896c-4.404,2.605-12.857,3.154-13.946,4.283  s-5.568,2.439-5.568,2.439c-17.121,13.52-22.868,25.738-22.868,25.738c-0.799,4.895-2.459,8.219-2.459,8.219  C357.187,408.277,371.426,420.935,371.426,420.935z"
     id="path51" /></svg>