<svg xmlns="http://www.w3.org/2000/svg" width="100" height="100" viewBox="0 0 100 100"><filter id="a"><feGaussianBlur in="SourceAlpha" stdDeviation=".5" result="blur"/><feOffset in="blur" dx=".5" dy=".5" result="offsetBlur"/><feFlood flood-color="#00000" flood-opacity=".5" result="offsetColor"/><feComposite in="offsetColor" in2="offsetBlur" operator="in" result="offsetBlur"/><feMerge><feMergeNode/><feMergeNode in="SourceGraphic"/></feMerge></filter><g filter="url(#a)" opacity=".5" fill-rule="evenodd" clip-rule="evenodd" fill="#F9F1E9"><path d="M36.437 8.695c-.004-.002-.007-.001-.013-.005l.008-.009.005.014zM14.296 49.683c-.007 0-.015-.002-.021-.001a.099.099 0 0 0-.003-.024c.011.004.015.01.025.015l-.001.01z"/><path d="M14.296 49.683c-.119.727.42 1.239.632 1.854.197.568.39 1.11.265 1.797-.562-.302-.922-.615-1.13-1.251-.368-1.116-.707-2.245-1.404-3.257-.48-.694-.929-1.119-1.774-1.153-.504-.021-.965-.228-1.407-.521-.402-.264-.807-.279-.801.448.007.904-.036 1.8.104 2.7.185 1.173.857 1.795 1.96 2.167 1.075.361 2.147.643 3.267.849 1.31.238 1.756 1.412 2.009 2.558.581 2.613 1.627 5.013 3 7.306.99 1.648 1.868 3.369 2.716 5.099 1.045 2.129 2.436 3.96 4.168 5.587 1.229 1.155 2.461 2.32 4.089 2.761 1.282.346 2.234 1.157 3.485 1.78-.698.24-1.249.092-1.799-.021-1.768-.366-3.531-.711-5.133-1.63-1.472-.847-2.56-2.118-3.774-3.248-2.155-2.003-4.508-3.714-7.107-5.107-1.491-.799-3.044-1.531-4.346-2.624-1.228-1.034-2.01-2.427-2.594-3.917-.163-.417-.302-.839-.849-1.027.541 1.819 1.443 3.384 2.667 4.78l-.151.148-7.592-4.262a4.868 4.868 0 0 1-.079.129c.95.612 1.854 1.318 2.86 1.816 2.04 1.013 3.84 2.443 5.928 3.356 2.068.903 3.962 2.118 5.934 3.196 2.309 1.261 4.178 2.99 6.008 4.814 1.154 1.152 2.422 2.182 3.848 3.016-1.376-.07-2.506-.772-3.679-1.349-.785-.386-1.554-.771-2.055-1.576-.203-.324-.667-.518-1.047-.693-.787-.364-1.598-.68-2.339-1.164.817 1.547 2.603 1.872 3.741 3.024 1.154 1.171 2.72 1.688 4.265 2.215-1.053.339-2.059.567-3.022-.194-.814-.646-1.849-.829-2.795-1.191-.608-.232-1.175.055-1.711.306-1.05.491-2.077 1.034-3.252 1.186-.243.031-.555.108-.604.392-.05.283.206.436.442.546.881.409 1.632 1.013 2.364 1.633.75.637 1.624 1.042 2.537 1.337.994.32 1.909.075 2.636-.701.584-.622 1.191-1.216 1.965-1.604.1-.05.225-.114.265-.205.7-1.543 2.022-1.113 3.256-1.08 2.162.06 4.096 1.244 6.273 1.203 1.458-.03 2.918-.033 4.378-.028 1.44.005 2.843.377 4.274.479 4.936.349 9.624 1.962 14.462 2.81.41.07.83.124 1.324.199-2.916 1.225-5.676 2.616-8.734 3.208a4.844 4.844 0 0 0-1.275.46c-.85.442-1.732.633-2.688.539-1.933-.187-3.875-.178-5.811-.127-1.575.039-3.076-.278-4.522-.879 2.472 1.695 5.329.969 8.152 1.205-.791 1.043-1.653 1.646-2.907 1.733-1.415.102-2.874-.146-4.236.545-.259.13-.886.371-1.114-.277-.029-.08-.053-.083-.157-.078-2.637.117-5.041-1.056-7.6-1.391-.973-.127-1.952-.293-2.844-.764-.094-.049-.29.101-.551.198 2.992 1.282 6.249 1.228 9.212 2.48-.447.287-.889.127-1.214.23 3.09.754 6.087-.609 9.371-.73-1.71 2.56-4.683 3.281-6.583 5.342.34.184.52-.072.643-.187 1.244-1.179 2.809-1.889 4.167-2.898.475-.354.997-.703 1.329-1.174.72-1.026 1.762-1.304 2.887-1.489 1.974-.322 3.944-.675 5.748-1.659-.042 1.487-.836 2.529-2.136 2.854-.876.217-1.592 1.312-1.6 2.452-.002.651-.039 1.307.019 1.954.113 1.29-.052 2.512-.69 3.66-.11.203-.417.509.001.714.351.173.516-.165.676-.37.445-.58.846-1.196 1.474-1.609.143-.092.279-.209.437-.259 1.114-.354 1.607-1.011 1.802-2.282a14.296 14.296 0 0 0-.032-4.643c-.075-.445.233-.739.316-1.107.427-1.955 1.952-2.512 3.591-3.139 1.777-.681 3.715-.653 5.442-1.449 1.84-.846 3.817-.7 5.745-.735 2.884-.05 5.22-1.151 7.262-3.13 1.311-1.271 2.752-2.406 4.271-3.717-.293 1.319-.898 2.345-1.447 3.382-.279.524-.652 1.017-.828 1.58-.526 1.666-1.821 2.673-2.951 3.892-1.399 1.513-2.595 3.295-3.07 5.391-.112.484-.624.992-.104 1.635.575-2.188 1.502-4.132 3.048-5.659.862-.853 1.473-1.908 2.442-2.677.657-.521.699-1.519 1.158-2.232.152-.235.283-.483.455-.786.298.464.267.901.142 1.325-.172.598-.331 1.21-.599 1.768-1.105 2.303-1.891 4.728-2.804 7.104-.228.597-.439 1.202-.388 1.868.809-2.312 1.807-4.545 2.678-6.828.441-1.162 1.216-2.176 1.467-3.431.124-.623.114-1.238.126-1.861.035-1.808 1.042-3.251 1.845-4.753 1.305-2.446 3.54-4.17 5.08-6.463 2.009-2.99 3.056-6.23 3.205-9.779.041-.993.439-1.868.623-2.809.371-1.878.779-3.744.853-5.67.075-2.028-.271-4.01-.724-5.958a309.793 309.793 0 0 1-1.134-5.012c-.336-1.56-.862-3.045-1.487-4.5-.867-2.024-1.691-4.062-2.211-6.223.609.584.918 1.393 1.538 1.948 1.295 1.156 2.295 2.537 3.236 3.987.529.819.617 1.758 1.004 2.604.911 1.983 1.539 4.074 2.117 6.166.676 2.452 1.201 4.948 1.765 7.428.229 1.003-.915 2.614-2.184 3.063-.607.216-1.146.5-1.522 1.016-.551.754-.516 1.871.214 2.738.825.979 1.539 2.025 2.208 3.11.413.675.689.697 1.109.027.741-1.181 1.694-2.307 1.24-3.892-.16-.557-.503-1.009-.728-1.523-.425-.978-.789-1.955-.051-3.057l1.425 2.795c.119-.611-.128-1.122-.362-1.622-.569-1.217-.768-2.506-.963-3.822-.211-1.45-.594-2.881-.999-4.295-.629-2.201-1.322-4.384-2.022-6.564-.406-1.264-.882-2.506-1.383-3.928 1.063.814 1.765 1.716 2.182 2.835.257.687.485 1.388.722 2.081.108-1.238-.46-2.28-1.004-3.324-.363-.688-.937-1.229-1.4-1.852 2.036.688 3.226 2.226 4.171 4.038.762 1.457 1 3.181 2.254 4.393.208-.171.013-.325-.055-.432-.896-1.393-1.314-3.004-2.079-4.456-.835-1.587-1.799-3.072-3.542-3.827-1.944-.841-3.455-2.127-4.545-3.991-.314-.54-.649-1.189-1.302-1.587-.575-.35-.697-1.133-1.007-1.734-.515-1.001-1.021-2.011-1.68-2.935a1.396 1.396 0 0 1-.269-.919c.5-.019.552.396.697.691.634 1.287 1.439 2.41 2.657 3.234.777.527 1.605.644 2.484.662.817.014 1.638-.027 2.445.069.61.069.666-.166.485-.605-.222-.549-.439-1.115-.761-1.607-.776-1.185-1.596-2.338-2.289-3.573-.443-.789-1.109-.931-1.936-.657-.884.295-1.816.464-2.667.83-1.243.532-2.2.029-3.048-.739-1.377-1.248-2.509-2.74-3.947-3.935-2.271-1.882-4.499-3.824-6.985-5.425-.882-.569-1.888-.889-2.907-1.116-3.056-.685-6.073-1.663-9.29-1.196-1.65.241-3.17.851-4.675 1.496-.627.269-1.171.33-1.787.052-3.134-1.407-6.405-1.599-9.714-.88-2.964.643-5.734 1.768-8.031 3.844a5.307 5.307 0 0 1-1.101.775c.345-1.137.995-2.098 1.622-3.064 1.13-1.746 2.689-3.063 4.347-4.278.195-.144.356-.336.534-.507-.341-.18-.408.351-.828.262.157-.547.155-1.094.871-1.336.556-.19 1.05-.553 1.596-.788.517-.223.677-.585.52-1.091-.237-.756-.509-1.5-.971-2.161a4.746 4.746 0 0 1-.47-.798c-.375-.867-.894-1.078-1.704-.581a6.294 6.294 0 0 0-1.698 1.52c-.255.329-.268.648-.093 1.026.347.739.672 1.479 1.174 2.143.675.897.593 2.283-.197 2.864-2.433 1.79-3.982 4.189-5.161 6.927-.563 1.306-1.492 2.449-2.206 3.695a244.424 244.424 0 0 0-3.044 5.488c-.323.595-.749 1.057-1.343 1.366-1.514.786-2.899 1.774-4.236 2.814-.906.704-1.319 1.819-1.832 2.822-.816 1.595-.997 3.409-1.746 5.044-1.045 2.284-.884 4.723-.671 7.154.127 1.478.185 2.962.261 4.445.019.266-.194.178-.347.172zM34.933 3.462c.062.322.37.547.348.931-.285.023-.374-.319-.695-.239.385.512.733.953 1.056 1.413.217.308.339.648.216 1.042-.112.36-.219.49-.55.15-.472-.483-.668-1.11-.962-1.679-.403-.789-.267-1.091.587-1.618zm1.311-.902c-.247.661-.049 1.271-.312 1.857-1.107-1.171-1.091-1.344.312-1.857zm1.021 2.07c-.965-.097-1.092-.536-.704-2.114.378.673.785 1.32 1.121 2.004.711 1.441.694 1.454-.734 2.151-.137.068-.249.248-.489.109-.013-.788-.061-1.592.806-2.15zm50.904 23.431c-1.65-.497-2.964-1.556-4.426-2.378.51-.924 1.714-.231 2.287-.987.372.285.502.735.755 1.101.161.232.342.451.506.677.355.495.781.956.878 1.587zm-2.944-.768c.749.646 1.859.591 2.611 1.353-1.58.416-1.782.312-2.611-1.353zm-3.535-1.882c1.357.526 2.837.875 3.311 2.522.06.205.396.36.224.579-.175.229-.494.1-.714.013-1.455-.569-2.191-1.795-2.821-3.114zm-.602-1.121c1.144-.516 2.299-.783 3.449-1.051.203-.047.404-.023.564.111.103.085.229.211.238.326.015.164-.173.195-.307.205-.648.039-1.152.424-1.715.683-.734.343-1.526.778-2.229-.274zm10.321 32.183c1.395 2.402 1.444 2.861.499 4.242-1.471-1.242-.586-2.701-.499-4.242zm-.855 2.381c-.145.754.11 1.454.189 2.278-.452-.233-.51-.634-.724-.914-.553-.71-.411-1.077.535-1.364zm.34-3.06c-.317.407-.091.901-.261 1.374-.196.418-.586.687-1.034.881-.292.129-.577.521-.885.307-.335-.233-.261-.718-.289-1.105-.008-.117.117-.243.166-.37.369-.965 1.374-.864 2.09-1.244.14-.076.252.106.213.157zM48.991 90.983c-.342.635-.467.7-1.395.789.372-.627.424-.658 1.395-.789zm-1.717 4.116c-.338-2.184-.004-2.918 1.261-2.981l-1.261 2.981zm3.111-7.953c-2.129 1.346-4.574 1.569-7.168 2.076.601-.819 1.179-1.262 2.019-1.309.619-.034 1.235.021 1.859-.029 1.14-.091 2.162-.601 3.29-.738zm-2.154 7.201c.625 1.694.57 1.99-.407 2.476-.152.075-.339.203-.463.082-.087-.086-.1-.322-.055-.463.226-.714.501-1.41.925-2.095zm1.594-3.276c.301 1.672.075 3.265-.478 4.947-1.045-1.607-.801-3.735.478-4.947zM16.64 79.462c.392.029.615.032.835.068 1.34.21 2.683.218 4.026.039.362-.048.825-.218 1.051.007.298.298-.118.663-.241.979-.433 1.106-1.469 1.485-2.571 1.087-1.184-.427-2.04-1.284-3.1-2.18zm2.113-.393c-.876.116-1.677.003-2.585-.209 1.402-.753 1.496-.743 2.585.209zm.906-.981c.199.194.413.382.573.606.109.153.47.303.212.524-.184.159-.571.279-.752.001-.344-.523-.98-.621-1.39-1.083.479-.639.92-.477 1.357-.048zm3.268.845c-1.627.688-2.445-.588-3.549-1.382.184-.086.278-.16.382-.174 1.305-.18 2.316.598 3.386 1.121.403.196.03.329-.219.435zm1.508.68c-.471.348-.95.684-1.524 1.094.024-.264.03-.396.046-.524.105-.875.48-1.163 1.319-1.03.15.023.3.053.324.204.014.075-.084.197-.165.256zM9.432 50.377c.097-.262.448-.131.684-.188.655-.157.848.442 1.206.756.16.141.424.321.323.544-.125.274-.445.32-.74.295-.198-.019-.392-.051-.675-.092-.146-.148-.339-.35-.535-.55-.211-.215-.361-.508-.263-.765zm-.104-1.831c.253.367.809.548.729 1.055-.033.202-.401.199-.583.083-.451-.284-.208-.724-.146-1.138zm2.338 1.858c-.067.012-.172-.041-.219-.097-.629-.735-1.456-1.312-1.846-2.389.322.099.558.199.802.245 1.633.31 1.353.413 1.435 1.913.008.142.005.299-.172.328zm1.889 1.603c-1.214-.733-1.428-1.237-1.182-2.666.762.727.86 1.662 1.182 2.666zm15.828-27.399c-2.826 2.832-5.265 5.816-7.92 8.624-.167-.238-.016-.37.048-.516.506-1.164 1.294-2.163 1.905-3.267 1.299-2.346 3.018-4.207 5.967-4.841zm33.86 51.621c-2.974 1.269-6.117 1.937-9.283 2.342-2.976.386-5.978-.121-8.949-.521-1.821-.244-3.584-.736-5.355-1.254-2.809-.821-5.575-1.587-7.917-3.505-2.204-1.805-4.241-3.728-5.681-6.202-1.023-1.757-1.678-3.678-2.309-5.606-.892-2.725-2.372-5.181-3.589-7.756-.829-1.756-1.708-3.493-1.874-5.474-.315-3.801.364-7.46 1.591-11.039.688-1.959 2.003-3.473 3.477-4.85 1.734-1.622 3.667-2.998 5.55-4.441 2.387-1.83 4.828-3.552 7.6-4.722 2.874-1.214 5.348-3.118 8.114-4.514 2.37-1.199 4.728-2.127 7.5-1.769 2.326.298 4.604.843 6.93 1.113 1.86.213 3.663.711 5.38 1.433 1.172.493 2.351.931 3.566 1.298a8.815 8.815 0 0 1 2.284 1.049c2.547 1.679 4.428 4.062 6.251 6.432 1.171 1.524 2.442 2.954 3.689 4.405.821.956 1.453 1.956 1.674 3.16.515 2.799 1.027 5.58.768 8.485-.275 3.041-.085 6.117-.741 9.14-.561 2.573-.929 5.202-2.407 7.466-.563.861-.742 1.93-1.379 2.715-1.021 1.257-1.758 2.694-2.726 3.978-.933 1.237-1.646 2.663-2.79 3.712-1.522 1.396-3.512 2.092-5.241 3.185-1.27.797-2.756 1.154-4.133 1.74zm5.768-1.375l.14.237c-1.007.566-1.778 1.536-3.134 1.513.998-.583 1.997-1.166 2.994-1.75zm12.717-18.271c.347-1.092.538-2.25 1.261-3.2-.214 3.988-.707 7.902-2.832 11.404-1.191 1.964-2.588 3.739-4.751 5.009.133-.541.391-.764.587-1.037.811-1.133 1.788-2.134 2.271-3.52.369-1.053.531-2.221 1.251-3.13 1.287-1.628 1.608-3.63 2.213-5.526zm-7.154 13.105c1.148-1.656 2.087-3.453 3.319-5.053-.44 2.125-2.299 3.31-3.319 5.053zm-1.248-46.571c2.909 1.925 5.573 4.07 6.748 7.547-2.144-2.608-4.556-4.977-6.748-7.547zm-13.392-6.434c3.061-.122 5.43 1.574 7.908 2.984-2.812-.511-5.339-1.803-7.908-2.984zm-.219.766c-.699-.045-1.245-.035-1.855-.337.738-.45 1.251-.258 1.855.337zm-6.9-1.648c1.715-.838 3.005.124 4.366.611-1.447.13-2.829-.182-4.366-.611zm-19.186 4.87c-1.927 2.205-4.496 3.218-7.08 4.406 1.202-2.641 3.676-3.893 5.695-5.574 2.397-1.993 5.378-2.806 8.328-3.618 1.45-.4 2.913-.662 4.419-.663.233 0 .454-.027.65.242-.542.501-1.206 1.07-1.866 1.058-1.934-.031-3.656.56-5.405 1.255-1.757.702-3.508 1.482-4.741 2.894zm8.337-3.307a43.1 43.1 0 0 1-7.812 3.791c2.18-2.128 4.923-3.113 7.812-3.791zm3.703-.368c.431.007.81-.511 1.351-.049a14.73 14.73 0 0 0-2.546 1.181c-2.342 1.357-4.63 2.829-7.056 4.02-2.879 1.414-5.7 2.874-8.209 4.898-.923.743-1.92 1.4-2.882 2.097.809-1.301 1.857-2.36 2.898-3.423 1.036-1.058 2.228-1.974 3.401-2.834 1.436-1.05 3.15-1.759 4.816-2.444 1.28-.526 2.471-1.199 3.709-1.795 1.452-.705 2.811-1.681 4.518-1.651zm.124-.878c1.369-.843 1.369-.843 3.948-.038-1.254.011-2.509.024-3.948.038zm2.818-2.577c-.696.453-1.34 1.246-2.185 1.209-2.379-.104-4.671.247-6.935.925-2.688.807-5.322 1.738-7.619 3.412-.522.382-.955.888-1.483 1.26-1.527 1.079-2.896 2.291-3.918 3.891-.344.536-.651 1.158-1.255 1.571-.073-.366.082-.602.234-.832.886-1.348 1.637-2.802 2.326-4.23 1.515-3.146 4.047-5.151 6.933-6.728 2.101-1.148 4.469-1.66 6.905-1.867 2.319-.197 4.49.26 6.649.957.199.063.697.206.348.432zm4.299 1.465c-1.713.888-3.373.248-5.083-.063 1.095-1.487 2.875-1.448 5.083.063zm17.895 1.773l-.055.091c-.841-.298-1.665-.641-2.52-.882-1.435-.406-2.846-.875-4.317-1.171-2.387-.475-4.78-.99-7.189-.479-1.981.419-3.789.197-5.559-.697-.158-.079-.431-.06-.412-.334.006-.086.123-.196.215-.235 2.356-.991 4.755-1.692 7.373-1.458 1.7.152 3.297.724 4.96.999 1.738.287 3.272 1.017 4.774 1.871.189.109.563.235.485.408-.33.731.321.592.611.782.551.362 1.092.737 1.634 1.105zM60.02 83.903c-.91.584-1.765.68-2.658.59.798-.349 1.594-.722 2.658-.59zm-12.113-3.447c.618-.526 1.214-.242 1.771-.215 2.358.117 4.654-.249 6.981-.606 3.232-.496 6.479-.801 9.626-1.804 2.687-.856 5.163-2.032 7.3-3.891 1.916-1.666 3.825-3.345 5.755-4.997 1.349-1.153 2.329-2.573 3.161-4.114a27.33 27.33 0 0 1-4.057 4.374c-2.26 1.954-4.365 4.091-6.871 5.748-1.264.833-2.612 1.498-4.08 1.915 1.064-.812 2.133-1.595 3.015-2.592.451-.507.875-1.047 1.474-1.386 1.261-.71 2.364-1.639 3.53-2.48 2.411-1.737 4.295-3.912 5.616-6.556 1.594-3.197 2.063-6.682 2.291-10.177.145-2.209.486-4.407.325-6.65-.11-1.501.41-3.051.257-4.539-.41-3.975-1.354-7.805-3.002-11.509-1.672-3.765-4.362-6.531-7.689-8.652-3.137-1.995-6.26-4.057-9.717-5.519-1.341-.568-2.699-.968-4.109-.709-1.446.265-2.474-.674-3.735-.918 1.105-.401 2.216-.505 3.344-.45 2.777.135 5.461.71 8.114 1.551 1.933.613 3.789 1.343 5.458 2.482 4.089 2.792 6.541 6.845 8.524 11.242.906 2.012 1.396 4.167 2.109 6.241.973 2.836 1.88 5.674 2.336 8.637.303 1.978.47 3.968.193 5.971-.044.324-.142.666.005 1.087.611-2.182.418-4.319.411-6.439 1.516 4.229 1.168 8.442.12 12.766-.772-.829-.457-1.771-.64-2.816-.341.913-.292 1.621-.282 2.325.026 1.657-.011 3.26-1.421 4.509-.555.494-.848 1.282-1.26 1.938.96-.808 1.441-1.981 2.421-2.922-.002 2.038-.555 3.776-1.093 5.535-.675 2.196-2.25 3.771-3.532 5.553-.558.775-1.209 1.454-1.895 2.133-2.146 2.121-4.396 4.128-6.636 6.145-1.109.998-2.566.7-3.203-.637a8.691 8.691 0 0 0-.528-.966c-.114-.178-.244-.381-.537-.296-1.264.354-2.651.316-3.744 1.201-.176.143-.459.288-.359.518.263.599.513 1.235.933 1.718.299.345.611.898 1.212.816 1.176-.161 2.4-.363 3.3-1.159.504-.446.786-.376 1.276-.072-.536.496-1.176.727-1.814.926-2.704.849-5.492.642-8.232.397-3.254-.292-6.401-1.287-9.621-1.841-.926-.159-1.811-.52-2.801-.816zm20.724.773c.201.133.185.258-.03.363-.847.412-1.724.733-2.675.758-.382.01-.557-.238-.669-.531l.107-.119c.439-.56 2.644-.88 3.267-.471zm-.371-.437c-.092-.023-.217-.108-.245-.193a3.185 3.185 0 0 0-.622-1.16c.668.038 1.163.639 1.053 1.145-.024.105-.043.243-.186.208zm-1.87-.287c-.399-.349-.939-.035-1.479-.381.591-.326 1.108-.711 1.693-.13.114.114.179.306.085.458-.039.061-.249.098-.299.053zm-23.112-2.048c1.3.205 2.598.41 3.897.613-1.402.345-2.675-.058-3.897-.613zm-9.193.921c-1.095.15-1.167.134-1.807-.385.622-.1 1.18.026 1.807.385zM25.747 73l.141-.163 2.746 2.38c-1.231-.427-1.997-1.394-2.887-2.217zm-3.405-5.802a64.948 64.948 0 0 1 2.982 3.071c1.367 1.521 2.803 2.926 4.748 3.723.804.328 1.577.758 2.31 1.227 2.052 1.314 4.342 2.038 6.623 2.802 1.221.408 2.448.795 3.698 1.1-10.697-.743-16.23-4.894-20.361-11.923zm-2.999-7.045c3.64 4.887 7.344 9.695 12.08 13.702-.544-.02-.806-.369-1.145-.557-2.089-1.152-3.937-2.61-5.469-4.462-1.346-1.627-2.477-3.416-3.934-4.961-.942-.998-1.236-2.361-1.532-3.722zm-1.264-9.034c-.042-.2-.107-.491.162-.645 2.257 5.262 5.21 10.19 6.775 15.724-.232.015-.314-.151-.431-.269-1.415-1.428-2.573-3.064-3.786-4.656-.615-.806-1.17-1.637-1.55-2.593-.969-2.435-.654-5.06-1.17-7.561zm-.856-6.084c.563 3.558.522 7.141.828 10.7-2.651-3.407-1.766-7.06-.828-10.7zm-2.398-4.136c.115-1.585.796-3.041 1.299-4.541.897-2.674 1.831-5.298 4.299-6.969.79-.536 1.546-1.174 2.55-1.498-.461 1.513-1.343 2.713-1.879 4.077-.797 2.026-1.504 4.085-2.538 6.019a20.623 20.623 0 0 0-2.023 5.654c-.458 2.291-.73 4.616-.882 7.158-.145-.24-.208-.301-.224-.375a35.166 35.166 0 0 1-.602-9.525z"/><path d="M11.911 25.471c-.274.801-.614 1.578-.737 2.437-.166 1.171.064 2.265 1.062 2.855 2.107 1.251 1.743 3.204 1.624 5.081-.071 1.094-.388 2.163-.491 3.269-.286 3.072-.271 6.119.417 9.141.109.482-.126 1.1.486 1.404-.157-1.22-.19-2.474-.505-3.653-.559-2.086-.116-4.155-.123-6.231-.006-1.866.586-3.625 1.029-5.406.311-1.258 1.105-2.302 1.921-3.266 1.381-1.632 2.339-3.504 3.235-5.407.482-1.028 1.206-1.896 1.673-2.934.919-2.032 1.612-4.14 2.222-6.287-.754 1.784-1.479 3.581-2.271 5.347-.812 1.808-1.815 3.522-2.717 5.286-.898 1.753-1.859 3.508-3.424 4.847 1.454-3.542 3.686-6.735 4.887-10.394 1.198-3.646 2.389-7.293 4.043-10.773l-.255-.109c-.801 1.896-1.604 3.792-2.407 5.689-.071-.018-.144-.04-.216-.06-.126-2.17.66-4.39-.287-6.517-.352.767.016 1.534-.014 2.304-.157 4.077-.419 8.122-2.223 11.89-.925 1.932-1.879 3.851-3.003 5.672-.623 1.009-.793 2.171-1.354 3.22-.135-.898-.509-1.874-.074-2.684.981-1.82.257-3.341-.582-4.882-.304-.56-.579-1.42-1.245-1.352-.593.062-.485.973-.671 1.513zm2.147 4.045c-.47-.743.07-1.217.319-1.95.266.832.035 1.368-.319 1.95zm-2.336-.755c.312.271.604.483.843.74.258.277.597.398.901.591.333.21.202.54.072.828-.059.129-.142.22-.323.155-.684-.241-1.465-1.39-1.493-2.314zm.209-1.647c.159-.362.251-.281.539-.121 1.014.569.828 1.541 1.018 2.625-.495-.364-.808-.639-1.161-.844-.732-.427-.694-.984-.396-1.66zm.819-2.34c.077-.114.167-.054.271.02.626.431 1.029 2.145.604 2.915-.334-.915-.648-1.769-.947-2.63-.03-.085.015-.222.072-.305zM41.744 6.95c1.671.047 3.291.424 4.883.88.987.283 1.964.529 2.983.527 1.705-.005 3.361.36 4.98.789 1.579.42 3.059.158 4.584-.268-2.514.458-4.919.053-7.262-.921.603.065 1.207.195 1.811.185 1.932-.03 3.902-.386 5.785-.112 2.556.372 4.717-.937 7.104-1.141.961-.082 1.925-.159 2.878-.332-1.643-.239-3.256-.172-4.861.292-1.796.518-3.591 1.158-5.591.58.887-.703 1.871-1.056 2.883-1.373-.924-.236-1.726.193-2.438.601-1.367.785-2.801 1.074-4.312.829-.602-.095-.935.3-1.406.381-.737.127-1.461-.109-2.188-.183-.772-.079-1.524-.324-2.311-.506.325-.564.775-.534 1.281-.477.917.106 1.829.295 2.766.154 1.311-.195 1.971-.857 2.133-2.199.077-.624-.082-1.269.268-1.878.109-.188-.206-.542-.432-.468-.8.262-1.435-.173-2.107-.418-1.854-.672-3.431.389-3.459 2.357-.004.281-.043.565-.054.847-.048 1.341-.847 2.063-2.177 1.959a9.354 9.354 0 0 0-1.086-.035c1.398.353 2.864.352 4.416.844-1.863.13-3.511-.017-5.116-.547a15.997 15.997 0 0 0-3.359-.697c-.19-.021-.626-.181-.596.33zm11.562-2.913l1.641-.764c.105 1.167-.067 1.252-1.641.764zm-2.432 2.009c.787-1.258 1.949-1.296 3.139-1.274.271.006.611-.143.744.207.108.29-.113.528-.294.746-.224.27-.5.407-.854.489-.909.206-1.775.03-2.735-.168zm1.489-3.658c.51-.303 1.14.104 1.711.496-.685.344-1.162.855-1.863 1.034-.116-.563-.227-1.306.152-1.53zm-2.151 2.073a1.95 1.95 0 0 1 1.163-1.963c.143-.063.304-.247.445-.078.167.199.113.521-.067.614-.767.401-.731 1.208-1.01 1.854-.092.211-.158.421-.438.553-.034-.366-.065-.671-.093-.98zM74.953 92.236c.412.476.464 1.796.141 2.345-.224.381-.515.398-.866.286-.864-.275-1.15-1.159-.739-2.275.288-.786.953-.947 1.464-.356zM97.165 44.311c-.467-.307-.772-.869-.629-1.28.322-.743.698-.97 1.062-.82.598.245.962 1 .692 1.532-.227.446-.637.889-1.125.568zM6.715 66.896c.469.295.888.722.562 1.465-.176.286-.45.651-.882.349-.422-.295-.876-.697-.575-1.316.165-.338.437-.787.895-.498z"/><path d="M18.098 18.69c-.185.27-.44.416-.791.201-.654-.401-.657-.806.018-2.037.753.411 1.138 1.3.773 1.836zM68.562 10.773c-.505-.171-.556-.639-.405-1.048.109-.309.32-.665.712-.611.537.345.846.754.619 1.319-.153.383-.567.462-.926.34zM30.585 86.429c-.257.516-.569.453-.967.265-.39-.184-.708-.448-.493-.91.178-.378.529-.48.915-.257.322.218.87.248.545.902zM36.437 8.695l-.005-.013c.02-.006.04-.016.059-.022l-.054.035zM40.881 6.693c.348-.065.601.086.863.257h-.001c-.451-.113-.865 0-1.304.125-1.373.39-2.605 1.119-3.948 1.584 1.341-.929 2.768-1.658 4.39-1.966zM69.723 94.255c.448.184.545.604.387.986-.101.235-.362.555-.59.404-.646-.341-.653-.779-.551-1.193.107-.43.481-.307.754-.197zM66.672 90.456c.346.217.633.542.441.982-.128.296-.455.282-.749.221-.257-.254-.626-.479-.44-.911.129-.302.417-.501.748-.292zM95.24 49.88c-.441-.173-.344-.501-.274-.888.185-.183.412-.434.745-.273.429.208.48.647.326 1.012-.135.319-.48.274-.797.149zM22.669 8.025c-.244-.1-.387-.317-.296-.609.303-.329.669-.547 1.104-.403.206.067.554.393.351.538-.328.226-.65.683-1.159.474zM3.742 57.999c.319.112.486.37.36.66-.154.354-.488.394-.865.306-.455-.108-.194-.459-.312-.721.223-.25.478-.363.817-.245zM95.795 39.866c-.227-.144-.537-.376-.32-.768.076-.403.391-.353.66-.296.417.091.419.466.32.74-.085.245-.374.505-.66.324zM23.358 91.224c-.003-.238-.052-.606.303-.501.402.119.375.609.239.862-.148.279-.41.839-.765.629-.638-.379.167-.644.223-.99zM27.975 8.244c-.254-.074-.324-.301-.188-.547.165-.303.344-.597.815-.461.26.167.299.431.164.711-.162.333-.484.386-.791.297zM40.459 97.056c.37.17.479.509.376.839-.078.253-.414.366-.648.246-.312-.161-.355-.486-.256-.79.109-.261.241-.427.528-.295zM59.06 3.6c-.302-.06-.407-.307-.302-.582.119-.31.37-.476.709-.47.273.154.354.37.245.641-.115.292-.337.472-.652.411zM72.52 9.846c-.341-.136-.449-.351-.357-.624.086-.268.327-.436.579-.293.215.118.487.301.325.664-.135.305-.349.312-.547.253zM91.707 43.885c-.283-.856-.905-1.586-.936-2.538.596.737.585 1.707.936 2.538zM90.771 41.348l-.025-.037c.002-.021 0-.042.001-.065.009.02.016.039.021.057l.003.045zM66.126 97.716c.339.07.444.366.421.635-.021.243-.265.323-.557.223-.267-.11-.365-.348-.315-.656.046-.275.261-.243.451-.202zM75.037 90.961c-.289-.103-.424-.312-.314-.588.109-.268.357-.335.606-.226.283.152.398.339.266.634-.124.277-.324.262-.558.18zM29.109 94.891c.281.136.402.407.269.708-.1.227-.297.353-.546.193-.226-.142-.382-.333-.256-.691.163-.039.281-.33.533-.21zM20.921 3.004l-.099 1.935c-.259-.629-.39-1.3.099-1.935zM22.202 86.873c-.711-.003-1.235-.203-1.616-.721.505.242 1.183.093 1.616.721zM26.197 5.923c.095.586-.187 1.066-.473 1.762-.127-.811.203-1.278.473-1.762z"/></g></svg>